<?xml version="1.0" encoding="UTF-8"?>
<!DOCTYPE svg PUBLIC "-//W3C//DTD SVG 1.1//EN" "http://www.w3.org/Graphics/SVG/1.1/DTD/svg11.dtd">
<svg xmlns="http://www.w3.org/2000/svg" version="1.1" width="1254px" height="1254px" style="shape-rendering:geometricPrecision; text-rendering:geometricPrecision; image-rendering:optimizeQuality; fill-rule:evenodd; clip-rule:evenodd" xmlns:xlink="http://www.w3.org/1999/xlink">
<rect x="0" y="0" width="1254" height="1254" fill="#fefefe"/>
<g><path fill="#fefefe" stroke="#fefefe" stroke-width="0.5" d="M 0,0 C 418,0 836,0 1254,0 C 1254,418 1254,836 1254,1254 C 836,1254 418,1254 0,1254 C 0,836 0,418 0,0 Z M 326.66,331.11 C 326.91,334.57 326.98,338.03 326.87,341.5 C 326.88,344.29 327.85,346.68 329.79,348.69 C 331.78,350.74 333.72,352.85 335.6,355.01 C 335.76,355.34 335.92,355.67 336.08,355.99 C 335.51,356.26 335.02,356.63 334.6,357.1 C 310.55,384.55 290.91,414.87 275.7,448.06 C 252.15,500.35 240.74,555.16 241.46,612.5 C 242.29,655.25 249.38,696.94 262.74,737.56 C 273.1,769.58 287.37,799.75 305.56,828.06 C 312.01,837.88 318.72,847.51 325.7,856.94 C 340.16,875.34 356.11,892.35 373.54,907.98 C 374.04,908.38 374.59,908.69 375.2,908.91 C 375.55,909.62 376.04,910.22 376.66,910.7 C 380.08,913.82 383.63,916.76 387.32,919.53 C 387.86,919.56 388.36,919.42 388.8,919.1 C 388.62,920.17 388.98,921.02 389.88,921.63 C 425.57,950.83 465.04,973.42 508.29,989.4 C 553.65,1005.47 600.39,1012.98 648.5,1011.91 C 712.53,1009.98 772.35,993.1 827.97,961.28 C 849.18,949.07 869.21,935.16 888.06,919.56 C 892.5,915.88 896.8,912.06 900.95,908.11 C 901.89,908.83 902.61,909.72 903.11,910.76 C 903.09,913.66 903.1,916.57 903.15,919.49 C 904.17,926.16 907.14,931.8 912.06,936.43 C 926.65,951.68 941.27,966.9 955.91,982.1 C 958.27,984.4 960.56,986.77 962.78,989.22 C 967.78,994.39 972.79,999.54 977.82,1004.68 C 985.46,1011.33 994.16,1016.02 1003.92,1018.74 C 1005.53,1018.92 1007.09,1019.28 1008.61,1019.83 C 1012.89,1020.45 1017.19,1020.83 1021.5,1020.96 C 1025.48,1020.78 1029.43,1020.38 1033.36,1019.75 C 1053.84,1015.33 1069.03,1003.89 1078.92,985.41 C 1083.79,975.39 1086.03,964.81 1085.65,953.67 C 1085.21,946.07 1083.64,938.7 1080.95,931.58 C 1078.67,926.12 1075.74,921.04 1072.16,916.34 C 1071.39,915.54 1070.6,914.76 1069.8,914 C 1069.7,913.63 1069.5,913.34 1069.22,913.1 C 1051.79,894.91 1034.35,876.75 1016.89,858.61 C 1015.17,856.99 1013.43,855.4 1011.66,853.84 C 1006.04,849.22 999.66,846.27 992.51,844.98 C 985.43,844.07 978.72,845.25 972.39,848.53 C 971.63,848.74 970.93,848.62 970.29,848.17 C 969.47,847.28 968.5,846.61 967.4,846.14 C 966.21,846.13 965.04,846.22 963.87,846.41 C 962.56,845.13 961.21,843.88 959.84,842.65 C 960.13,841.67 960.52,840.72 961.01,839.81 C 961.56,839.6 961.97,839.21 962.24,838.66 C 970.25,827.15 977.64,815.24 984.41,802.96 C 1005.69,763.73 1020.44,722.19 1028.65,678.32 C 1030.59,666.7 1032.3,655.05 1033.76,643.36 C 1035.89,622.44 1036.38,601.49 1035.25,580.5 C 1033.98,551.14 1029.43,522.29 1021.59,493.97 C 1005.76,435.98 977.7,384.68 937.4,340.08 C 936.97,339.64 936.46,339.32 935.89,339.1 C 935.79,338.15 935.42,337.33 934.78,336.62 C 913.4,313.54 889.44,293.57 862.89,276.7 C 855.09,271.8 847.13,267.12 839.01,262.64 C 830.43,257.91 821.67,253.54 812.73,249.54 C 761.38,226.86 707.64,215.48 651.5,215.4 C 572.37,215.65 498.73,235.9 430.59,276.14 C 415.67,285.04 401.51,295 388.09,306.02 C 385.93,304 383.73,302 381.51,300.04 C 379.73,298.15 377.55,297.3 374.98,297.5 C 373.42,297.77 371.87,298.06 370.32,298.4 C 369.42,298.27 368.55,298.04 367.71,297.69 C 364.97,295.07 362.08,292.61 359.05,290.32 C 357.74,289.37 357.07,288.1 357.03,286.5 C 357.7,281.51 358.28,276.5 358.76,271.48 C 358.99,265.8 359.29,260.13 359.68,254.47 C 359.57,249.15 359.25,243.83 358.74,238.53 C 357.22,228.26 354.1,218.51 349.37,209.26 C 336.17,185.29 316.37,169.7 289.98,162.5 C 289.08,161.96 288.13,161.82 287.13,162.1 C 285.55,161.89 284.01,161.53 282.51,161.01 C 278.2,160.35 273.86,159.99 269.5,159.92 C 264.8,159.99 260.13,160.35 255.49,160.99 C 239.65,163.73 225.89,170.63 214.21,181.67 C 201.58,194.77 194.49,210.38 192.95,228.5 C 192.8,233.17 192.81,237.84 192.98,242.51 C 197.01,270.97 211.35,292.63 236,307.5 C 246.26,313.43 257.16,317.8 268.69,320.61 C 286.22,324.75 303.97,327.44 321.95,328.65 C 323.75,329.02 325.32,329.84 326.66,331.11 Z M 216.36,235 C 216.7,214.78 225.57,199.51 242.95,189.21 C 247.32,187.1 251.87,185.47 256.58,184.3 C 259.56,183.92 262.53,183.49 265.5,183.02 C 267.83,183.02 270.17,183.02 272.5,183.02 C 275.45,183.6 278.42,184.05 281.42,184.36 C 295.13,187.26 306.87,193.76 316.63,203.87 C 326.66,214.5 332.69,227.06 334.72,241.53 C 335.74,250.52 335.73,259.51 334.67,268.5 C 333.86,275.84 332.96,283.17 331.99,290.5 C 331.84,291.83 331.8,293.16 331.86,294.5 C 331.69,295.81 331.32,297.06 330.75,298.25 C 329.2,300.35 327.46,302.28 325.52,304.03 C 324.76,304.67 323.9,305.11 322.93,305.36 C 312.39,304.9 301.92,303.71 291.53,301.81 C 280.73,300.14 270.21,297.41 259.97,293.63 C 245.64,287.98 234.2,278.76 225.65,265.98 C 221.68,259.26 218.85,252.09 217.16,244.48 C 216.86,241.32 216.6,238.16 216.36,235 Z M 967.19,962.81 C 960.85,956.15 954.46,949.53 948.02,942.97 C 940.81,935.29 933.58,927.64 926.3,920.02 C 923.99,916.78 923.73,913.36 925.53,909.77 C 925.69,909.31 926.01,909.03 926.48,908.93 C 927.5,909.59 928.54,910.25 929.6,910.9 C 931.07,912.46 932.65,913.89 934.35,915.19 C 936.58,916.51 938.91,916.67 941.32,915.66 C 943.78,914.27 946.26,912.92 948.76,911.59 C 949.14,911.42 949.41,911.52 949.58,911.89 C 949.68,912.28 949.75,912.67 949.81,913.07 C 950.81,915.93 952.7,917.92 955.49,919.06 C 957.59,919.49 959.63,920.06 961.64,920.79 C 962.81,921.55 963.95,922.35 965.06,923.17 C 967.49,923.86 969.96,924.1 972.47,923.9 C 973.1,923.96 973.68,924.17 974.2,924.52 C 977.74,928.88 981.5,933.03 985.49,936.97 C 987.94,938.84 990.61,939.2 993.5,938.06 C 997.58,936.7 1000.66,934.14 1002.74,930.38 C 1003.32,928.11 1003.37,925.82 1002.89,923.52 C 1002.6,922.58 1002.16,921.73 1001.55,920.96 C 998.73,917.85 995.83,914.82 992.85,911.86 C 991.47,910.53 990.01,909.31 988.47,908.2 C 988.23,906.01 988.29,903.82 988.66,901.63 C 988.62,901 988.47,900.4 988.2,899.82 C 988.03,899.45 987.89,899.07 987.75,898.68 C 987.36,898.05 986.99,897.42 986.63,896.77 C 985.98,895.07 985.41,893.35 984.93,891.6 C 984.22,889.94 983.47,888.3 982.68,886.68 C 981.1,884.85 979.44,883.1 977.71,881.42 C 977.71,880.77 977.88,880.16 978.23,879.59 C 980.58,876.37 982.02,872.77 982.53,868.81 C 982.71,868.44 982.92,868.1 983.18,867.78 C 985.1,866.78 987.16,866.32 989.35,866.42 C 992.94,866.86 996.1,868.28 998.82,870.67 C 1014.3,886.86 1029.79,903.04 1045.3,919.2 C 1048.99,923.21 1052.58,927.3 1056.08,931.47 C 1061.72,940.35 1064.02,950.03 1062.97,960.5 C 1062.27,968.25 1059.59,975.24 1054.92,981.48 C 1047.14,991.43 1036.98,997.13 1024.44,998.56 C 1013.49,999.18 1003.48,996.42 994.39,990.26 C 985.1,981.34 976.03,972.19 967.19,962.81 Z"/></g>
<g><path fill="#fbfbfb" stroke="#fbfbfb" stroke-width="0.5" d="M 861.86,279 C 862.06,280.03 861.98,281.05 861.62,282.04 C 860.26,285.95 858.72,289.79 856.99,293.55 C 846.07,316.24 833.6,338.03 819.57,358.94 C 802.84,384 785.17,408.38 766.56,432.08 C 742.5,462.55 717.65,492.36 692,521.51 C 620.03,603.47 543.13,680.52 461.3,752.66 C 429.35,780.83 396.25,807.59 362.02,832.93 C 361.97,832.56 362.01,832.19 362.15,831.84 C 363.36,829.91 365,828.44 367.05,827.44 C 367.46,827.2 367.7,826.84 367.78,826.38 C 367.27,825.92 366.67,825.61 365.97,825.47 C 364.35,823.3 363.18,820.89 362.47,818.26 C 362.35,817.95 362.36,817.66 362.5,817.38 C 363.08,817.7 363.65,818.04 364.22,818.38 C 364.45,819.25 364.85,820.01 365.42,820.67 C 366.35,820.67 367.23,820.56 368.08,820.34 C 368.25,819.79 368.16,819.28 367.8,818.82 C 366.18,816.72 364.75,814.52 363.53,812.21 C 362.18,812.38 360.83,812.41 359.48,812.31 C 358.91,812.83 358.62,813.5 358.62,814.31 C 358,814.66 357.32,814.91 356.58,815.04 C 356.46,815.22 356.34,815.4 356.22,815.58 C 356.98,816.12 357.81,816.5 358.72,816.72 C 358.74,817.36 358.67,817.99 358.52,818.6 C 358.29,817.61 357.7,817.2 356.76,817.39 C 352.26,815.77 350.9,812.76 352.67,808.36 C 353.48,808.38 354.14,808.11 354.68,807.55 C 354.7,806.48 354.35,805.55 353.62,804.77 C 349.92,800.14 346.18,795.54 342.41,790.99 C 342.15,790.97 341.9,790.96 341.64,790.94 C 341.07,791.37 340.68,791.92 340.48,792.61 C 340.44,790.62 340.29,788.64 340.02,786.67 C 339.56,786.3 339.05,786.25 338.49,786.53 C 337.72,784.82 337.06,784.85 336.5,786.63 C 336.4,784.97 335.69,783.63 334.39,782.6 C 335.08,782.44 335.79,782.35 336.51,782.33 C 337.07,782.25 337.48,781.97 337.75,781.48 C 336.86,780.9 335.86,780.54 334.76,780.4 C 333.75,779.86 332.79,779.26 331.86,778.6 C 327.58,775.26 325.94,770.93 326.93,765.61 C 327.27,765.18 327.62,764.74 327.99,764.31 C 328.2,763.71 328.02,763.26 327.46,762.95 C 326.2,762.47 325.02,762.62 323.91,763.38 C 323.5,763.86 323.05,764.28 322.54,764.64 C 322.02,764.4 321.63,764.03 321.36,763.53 C 322.1,762.73 322.71,761.83 323.17,760.83 C 323.54,760.05 323.47,759.34 322.95,758.68 C 321.27,758.12 319.78,758.43 318.5,759.62 C 318.31,759.28 318.28,758.92 318.4,758.53 C 319.11,757.14 319.65,755.7 320.04,754.2 C 320.38,749.68 318.31,747.47 313.83,747.55 C 313.88,747.55 313.93,747.55 313.98,747.55 C 313.28,748.19 312.44,748.51 311.45,748.51 C 311.81,747.95 311.78,747.44 311.35,746.97 C 310.71,746.8 310.06,746.68 309.4,746.6 C 309.96,746.34 310.4,745.96 310.71,745.45 C 310.11,744.91 309.41,744.54 308.61,744.34 C 306.99,742.86 306.78,741.22 307.97,739.42 C 308.53,738.73 309.12,738.09 309.75,737.5 C 309.39,737.03 308.94,736.69 308.38,736.46 C 308.62,736 308.66,735.53 308.5,735.05 C 307.41,732.04 305.91,729.24 304.01,726.66 C 303.64,726.04 303.14,725.56 302.51,725.22 C 301.69,726.14 301.09,727.19 300.72,728.39 C 300.88,729.38 301.02,730.37 301.12,731.36 C 300.86,730.72 300.46,730.17 299.91,729.7 C 299.21,728.18 298.68,726.61 298.33,725 C 297.56,725.19 296.8,725.35 296.06,725.47 C 294.94,724.31 294.08,722.99 293.46,721.52 C 293.15,720.35 293.21,719.2 293.65,718.08 C 294.48,716.66 295.53,715.45 296.8,714.43 C 296.5,714 296.08,713.81 295.53,713.86 C 294.32,714.12 293.12,714.39 291.91,714.66 C 290.69,714.75 289.48,714.71 288.27,714.52 C 286.14,714.2 284.26,713.35 282.64,711.99 C 282.37,711.69 282.35,711.38 282.57,711.06 C 283.39,710.66 284.18,710.21 284.93,709.71 C 287.5,707.66 287.65,705.5 285.39,703.21 C 284.16,702.24 282.8,701.62 281.32,701.35 C 281.68,698.98 281.74,696.6 281.5,694.22 C 281.18,691.86 280.19,689.85 278.51,688.2 C 278.34,687.91 278.35,687.62 278.52,687.35 C 279.36,688.21 280.18,688.23 281,687.41 C 281.27,686.41 281.42,685.41 281.45,684.39 C 282.44,684.96 282.97,684.71 283.06,683.63 C 282.45,682.89 281.88,682.12 281.33,681.35 C 281.43,680.73 281.54,680.11 281.67,679.5 C 281.55,679.34 281.43,679.18 281.31,679.01 C 279.6,678.63 277.98,678.02 276.45,677.19 C 276.29,677.31 276.13,677.43 275.97,677.55 C 275.76,678.58 275.58,679.62 275.42,680.64 C 274.93,680.41 274.58,680.05 274.38,679.56 C 274.84,678.98 275.04,678.34 274.97,677.62 C 274.25,676.94 273.4,676.58 272.4,676.52 C 272.74,675.88 272.96,675.2 273.05,674.48 C 272.98,672.25 273.25,670.05 273.85,667.89 C 274.19,667.36 274.59,666.85 275.02,666.37 C 275.02,666.1 275.02,665.84 275.03,665.58 C 274.08,664.52 273.23,663.4 272.48,662.23 C 272.03,662.61 271.69,663.08 271.45,663.64 C 271.46,661.6 271.33,659.56 271.07,657.53 C 270.58,653.54 268.9,650.14 266.04,647.33 C 266.09,647.55 266.1,647.78 266.05,648.01 C 265.43,648.49 264.84,649 264.28,649.54 C 264.74,649.95 265.21,650.36 265.68,650.77 C 265.77,651.09 265.7,651.36 265.48,651.59 C 263.74,651.02 262.39,649.96 261.44,648.4 C 260.75,646.4 260.78,644.4 261.54,642.39 C 261.52,643.74 261.66,645.07 261.96,646.38 C 262.25,646.79 262.62,646.88 263.07,646.64 C 263.53,646.34 263.85,645.92 264.02,645.39 C 264.97,643.21 264.43,641.57 262.42,640.48 C 262.68,639.86 262.99,639.26 263.34,638.69 C 263.84,638.36 264.29,637.97 264.67,637.52 C 264.13,633.67 263.38,629.84 262.42,626.04 C 261.87,624.29 261.18,622.61 260.36,621.01 C 259.05,620.99 257.99,621.5 257.15,622.54 C 258.67,619.02 259.49,615.33 259.6,611.48 C 259.47,607.87 258.84,604.35 257.72,600.9 C 256.71,596.67 257.28,592.67 259.43,588.92 C 259.4,588.19 259.08,587.64 258.48,587.27 C 257.8,587.89 257.47,588.68 257.49,589.64 C 257.12,588.91 256.76,588.17 256.42,587.43 C 257.59,585.94 257.24,584.97 255.38,584.52 C 255.94,584.29 256.41,583.94 256.79,583.47 C 256.15,582.93 255.43,582.46 254.65,582.09 C 253.82,581.42 253.54,580.57 253.79,579.55 C 254.46,578.9 255.09,578.22 255.67,577.5 C 255.31,577.02 254.88,576.58 254.4,576.19 C 253.92,575 253.33,573.87 252.63,572.79 C 252.32,572.44 251.94,572.37 251.49,572.57 C 251.31,571.9 251.23,571.21 251.25,570.49 C 250.71,568.87 250.13,568.89 249.51,570.56 C 248.99,570.3 248.5,570.34 248.07,570.69 C 247.67,571.97 247.24,573.24 246.78,574.49 C 246.8,575.88 246.7,577.24 246.48,578.6 C 246.27,577.63 246.09,576.64 245.96,575.63 C 245.84,575.32 245.65,575.06 245.39,574.85 C 251.86,501.4 277.38,435.29 321.95,376.52 C 327.71,369.02 333.82,361.82 340.28,354.93 C 340.71,354.43 340.9,353.86 340.84,353.21 C 349.14,344.25 357.75,335.6 366.68,327.25 C 374.11,320.68 381.57,314.15 389.06,307.65 C 389.62,307.6 390.14,307.44 390.62,307.17 C 432.33,274.58 478.56,250.76 529.32,235.72 C 549.73,229.74 570.46,225.23 591.51,222.21 C 612.07,219.4 632.74,218.03 653.5,218.11 C 689.2,218.36 724.25,223.24 758.66,232.76 C 784.94,240.26 810.17,250.4 834.34,263.17 C 843.63,268.27 852.81,273.55 861.86,279 Z"/></g>
<g><path fill="#f6f6f6" stroke="#f6f6f6" stroke-width="0.5" d="M 934.26,341.72 C 934.96,341.7 935.55,341.96 936.02,342.5 C 945.48,353.1 954.39,364.15 962.74,375.65 C 999.19,427.43 1021.52,484.71 1029.75,547.51 C 1033.36,577.11 1033.99,606.77 1031.66,636.5 C 1026,698.75 1007.64,756.98 976.55,811.19 C 971.38,820.05 965.84,828.66 959.92,837.03 C 959.38,836.48 958.83,835.95 958.28,835.42 C 956.25,834.37 954.29,833.22 952.38,832 C 951.86,831.86 951.49,832.03 951.27,832.5 C 951.46,832.98 951.51,833.46 951.44,833.94 C 950.45,834.6 949.72,835.46 949.24,836.51 C 949.6,836.98 950.06,837.33 950.61,837.54 C 949.6,838.01 948.59,838.5 947.59,839 C 947.32,839.56 947.23,840.17 947.34,840.81 C 945.33,843.98 942.6,846.34 939.16,847.88 C 939.03,848.48 939.18,849.03 939.59,849.52 C 938.98,849.56 938.38,849.62 937.76,849.68 C 936.06,850.42 934.54,851.43 933.2,852.71 C 932.02,853.66 931.18,854.84 930.67,856.24 C 928.69,857.17 927,858.48 925.61,860.18 C 923.22,863.47 920.99,866.87 918.92,870.37 C 918.17,870.88 917.37,871.31 916.52,871.65 C 916.48,870.71 916.14,869.91 915.5,869.25 C 912.94,871.95 910.25,874.52 907.43,876.98 C 907.37,877.18 907.31,877.38 907.25,877.58 C 907.58,878.05 908.03,878.36 908.6,878.52 C 907.92,878.93 907.23,879.34 906.54,879.74 C 903.39,880.7 900.33,881.91 897.38,883.38 C 895.58,884.23 893.95,885.33 892.49,886.66 C 892.28,886.09 891.94,885.63 891.46,885.29 C 890.89,886.07 890.5,886.96 890.31,887.94 C 889.42,888.92 888.49,889.88 887.53,890.8 C 885.24,892.77 882.85,894.64 880.39,896.4 C 879.38,896.22 878.72,896.63 878.44,897.64 C 877.88,897.22 877.26,897.04 876.58,897.1 C 874.81,898.08 872.91,898.65 870.89,898.81 C 870.45,898.31 869.99,897.82 869.51,897.33 C 868.86,898.14 868.13,898.86 867.34,899.49 C 867.63,899.99 868.04,900.34 868.59,900.57 C 867.78,900.65 866.97,900.68 866.16,900.66 C 862.21,902.1 858.65,904.2 855.49,906.98 C 851.88,909.62 848.54,912.57 845.47,915.82 C 845.76,916.41 846.15,916.96 846.66,917.46 C 846.16,917.79 845.65,917.79 845.13,917.47 C 844.71,916.87 844.34,916.24 844.04,915.57 C 843.7,915.04 843.23,914.85 842.62,915.03 C 841.97,915.76 841.42,916.58 840.97,917.47 C 839.87,918.88 838.43,919.55 836.63,919.46 C 836.24,918.56 835.57,918.07 834.64,917.99 C 833.91,918.65 833.16,919.27 832.37,919.85 C 829.19,921.61 826.11,923.52 823.13,925.6 C 821.96,926.32 821.11,927.31 820.58,928.56 C 820.32,928.05 819.93,927.69 819.4,927.49 C 816.77,927.61 814.16,927.84 811.55,928.16 C 810.47,928.36 809.42,928.65 808.39,929.02 C 808.46,929.59 808.43,930.13 808.31,930.65 C 807.3,931.33 806.28,931.98 805.25,932.61 C 804.06,933.05 802.83,933.33 801.57,933.45 C 801.04,933.36 800.66,933.07 800.43,932.58 C 801.57,931.56 802.79,930.68 804.09,929.95 C 801.9,930.23 799.74,930.66 797.62,931.25 C 797.1,931.57 796.73,932.02 796.51,932.59 C 795.97,932.31 795.45,932.33 794.97,932.65 C 794.87,933.19 795.07,933.61 795.55,933.89 C 796.37,934.28 797.09,934.81 797.71,935.47 C 796.51,935.42 795.34,935.59 794.22,935.99 C 792.42,936.85 790.76,937.92 789.24,939.21 C 788.68,939.49 788.1,939.52 787.49,939.31 C 787.02,939.84 786.6,940.42 786.25,941.03 C 785.39,941.64 784.5,942.18 783.57,942.67 C 780.02,943.62 777.32,942.49 775.48,939.25 C 774.44,939.57 773.95,940.29 774,941.39 C 774.68,942.37 775.58,943.1 776.68,943.57 C 776.5,943.88 776.23,944.11 775.9,944.26 C 772.71,945.29 769.54,946.31 766.38,947.31 C 765.91,947.53 765.77,947.88 765.95,948.37 C 766.55,949.06 766.74,949.81 766.53,950.63 C 765.91,950.1 765.22,949.71 764.44,949.47 C 760.54,948.95 756.88,949.66 753.44,951.6 C 753.32,950.93 753.16,950.27 752.98,949.6 C 752.68,949.01 752.21,948.8 751.57,948.96 C 750.85,949.64 750.81,950.37 751.47,951.14 C 749.99,951.91 748.46,952.52 746.85,952.98 C 740.43,954.65 734.02,956.36 727.61,958.1 C 725.75,958.58 724.03,959.34 722.44,960.4 C 722.81,961.12 723.18,961.85 723.54,962.57 C 723.23,962.64 722.96,962.55 722.71,962.33 C 722.34,961.65 721.84,961.1 721.2,960.68 C 717.91,959.45 715.31,960.34 713.4,963.34 C 712.9,963.35 712.57,963.11 712.4,962.64 C 712.95,962.4 713.39,962.03 713.73,961.55 C 713.6,961.39 713.47,961.22 713.34,961.05 C 711.52,960.27 710.24,960.78 709.5,962.6 C 709.14,961.7 708.47,961.27 707.5,961.3 C 704.23,960.99 700.99,961.11 697.76,961.66 C 697.52,960.77 697.12,959.98 696.55,959.27 C 695.28,959.64 693.98,959.89 692.66,960 C 692.55,960.17 692.43,960.34 692.32,960.51 C 693.03,961.07 693.83,961.47 694.72,961.7 C 694.84,962.13 694.72,962.46 694.35,962.69 C 693.04,962.64 691.74,962.64 690.43,962.68 C 689.46,963.11 688.71,963.79 688.19,964.73 C 688.03,964.73 687.87,964.73 687.71,964.73 C 687.38,964.18 686.99,963.7 686.53,963.27 C 684.53,963.3 682.53,963.38 680.53,963.52 C 674.22,964.37 667.95,965.43 661.71,966.68 C 660.99,967.1 660.24,967.38 659.48,967.52 C 660.01,966.51 659.71,965.98 658.58,965.92 C 656.28,966.06 654.01,966.35 651.74,966.78 C 649.53,967.19 648.46,968.48 648.52,970.66 C 648.34,969.98 648.27,969.28 648.31,968.57 C 648.27,968.22 648.08,968.03 647.73,967.98 C 646.06,967.41 644.36,966.99 642.62,966.72 C 638.99,966.33 635.37,965.87 631.76,965.35 C 631.32,965.06 630.91,964.73 630.52,964.35 C 629.57,964.92 628.53,965.25 627.42,965.34 C 625.46,965.68 623.48,965.83 621.48,965.79 C 619.92,966.31 619.95,966.9 621.58,967.55 C 621.26,967.63 620.94,967.65 620.61,967.59 C 615.13,965.3 609.42,963.87 603.49,963.3 C 601.25,963.01 599.08,963.28 597,964.11 C 596.84,964.7 596.58,965.23 596.21,965.69 C 595.88,965.8 595.61,965.74 595.39,965.51 C 595.81,965.06 596,964.55 595.93,963.97 C 592.78,961.04 589.3,960.58 585.5,962.59 C 585.25,962.07 584.91,961.63 584.48,961.26 C 581.22,961.58 577.98,961.48 574.74,960.98 C 574.34,960.42 573.94,959.84 573.56,959.21 C 572.7,960.22 571.7,961.07 570.56,961.76 C 569.83,962.03 569.08,962.24 568.31,962.38 C 567.05,961.85 567.07,961.38 568.38,960.97 C 568.76,960.72 568.82,960.42 568.56,960.07 C 566.75,959.61 565.02,958.93 563.37,958.03 C 562.88,957.87 562.52,958.01 562.29,958.47 C 562.65,959.22 563.11,959.9 563.68,960.53 C 562.79,960.81 561.91,960.76 561.04,960.38 C 560.01,959.94 559.17,959.26 558.53,958.34 C 557.76,959.22 556.9,960.03 555.97,960.76 C 553.72,961.74 551.86,961.21 550.39,959.16 C 550.61,958.75 550.94,958.49 551.4,958.39 C 552.08,960.08 552.7,960.12 553.24,958.5 C 553.38,957.52 553.28,956.58 552.95,955.66 C 552.36,955.41 551.74,955.34 551.09,955.45 C 550.46,954.53 549.61,954.06 548.54,954.05 C 547.59,955.08 547.79,955.78 549.14,956.17 C 549.15,958.1 548.2,959.2 546.28,959.45 C 545.86,959.3 545.57,959.01 545.4,958.59 C 546.36,958.14 547.03,957.42 547.41,956.44 C 547.58,955.52 547.29,954.8 546.55,954.29 C 546.04,954.59 545.7,955.02 545.51,955.59 C 544.77,953.92 544.1,953.95 543.5,955.67 C 543.46,954.75 543.09,954 542.39,953.43 C 539.54,951.9 536.59,950.62 533.54,949.58 C 531.47,948.98 529.37,948.67 527.22,948.64 C 526.77,949.37 526.21,950.03 525.57,950.63 C 524.6,947.78 522.61,946.59 519.63,947.07 C 516.54,948.02 516.53,948.85 519.58,949.56 C 519.2,950.36 518.57,950.65 517.69,950.42 C 513.75,949.89 510.32,948.27 507.4,945.56 C 506.19,945.69 505.96,945.28 506.7,944.33 C 507.64,944.34 508.55,944.21 509.45,943.94 C 509.96,943.63 510.16,943.19 510.05,942.61 C 508.91,942.56 507.79,942.29 506.69,941.79 C 505.61,941.29 504.55,940.78 503.5,940.27 C 503.07,940.64 502.75,941.08 502.52,941.6 C 501.54,941.03 500.95,941.3 500.74,942.41 C 500.94,943.48 501.55,944.2 502.6,944.56 C 499.35,944.62 496.53,943.52 494.15,941.26 C 493.61,940.58 493.04,939.93 492.45,939.31 C 491.98,939.64 491.65,940.08 491.46,940.62 C 491.25,939.96 490.89,939.42 490.36,938.98 C 488.97,938.46 487.69,938.66 486.52,939.59 C 486.21,938.79 485.69,938.18 484.97,937.76 C 481.19,936.22 477.44,934.64 473.71,933.02 C 466.42,929.18 459,925.65 451.44,922.42 C 451.14,922.44 450.84,922.5 450.55,922.6 C 450.42,921.95 450.25,921.3 450.04,920.66 C 449.87,920.54 449.7,920.42 449.53,920.3 C 448.54,920.6 447.62,920.46 446.75,919.88 C 444.14,918.68 441.52,917.51 438.88,916.4 C 438.38,916.06 437.89,915.7 437.41,915.33 C 436.96,915.56 436.77,915.94 436.83,916.46 C 436.99,917.17 437.25,917.83 437.64,918.45 C 437.13,918.84 436.56,919.09 435.94,919.2 C 434.72,918.97 433.59,918.5 432.57,917.8 C 431.06,916.41 430.2,914.69 429.99,912.63 C 429.83,912.51 429.67,912.4 429.51,912.28 C 428.27,913.26 426.98,914.18 425.64,915.05 C 425.16,915.51 424.76,916.03 424.46,916.62 C 422.31,915.23 420.27,913.69 418.33,912.01 C 417.14,911.2 416.35,910.1 415.98,908.71 C 415.55,908.31 415.07,908.27 414.54,908.6 C 414.32,908.22 414.03,907.92 413.67,907.69 C 411.94,908.15 410.25,908.74 408.62,909.45 C 408.13,909.35 407.86,909.06 407.8,908.56 C 433.4,892.48 457.95,874.91 481.44,855.87 C 494.59,845.41 507.58,834.76 520.42,823.93 C 576.39,775.69 630.04,725.02 681.39,671.89 C 712.59,639.77 742.89,606.82 772.28,573.05 C 778.31,566.29 784.22,559.44 790.01,552.48 C 817.32,520.51 843.4,487.56 868.25,453.65 C 886.35,428.89 902.92,403.15 917.97,376.43 C 924.22,365.24 929.65,353.67 934.26,341.72 Z"/></g>
<g><path fill="#e5e5e5" stroke="#e5e5e5" stroke-width="0.5" d="M 959.92,837.03 C 960.05,837.37 960.18,837.71 960.31,838.05 C 959.74,838.37 959.24,838.78 958.82,839.28 C 956.56,842.46 954.39,845.68 952.29,848.96 C 941.71,862.26 930.65,875.13 919.1,887.6 C 912.87,893.94 906.53,900.17 900.08,906.28 C 898.42,907.31 896.84,908.46 895.33,909.7 C 890.07,914.15 884.81,918.6 879.55,923.04 C 854.79,942.75 828.13,959.41 799.56,973.01 C 756.11,993.54 710.42,1005.41 662.5,1008.63 C 634.37,1010.3 606.39,1008.95 578.56,1004.59 C 518.65,994.78 463.94,972.3 414.43,937.15 C 406.54,931.34 398.72,925.44 390.97,919.44 C 390.67,918.97 390.61,918.47 390.8,917.94 C 396.63,915.11 402.3,911.99 407.8,908.56 C 407.86,909.06 408.13,909.35 408.62,909.45 C 410.25,908.74 411.94,908.15 413.67,907.69 C 414.03,907.92 414.32,908.22 414.54,908.6 C 415.07,908.27 415.55,908.31 415.98,908.71 C 416.35,910.1 417.14,911.2 418.33,912.01 C 420.27,913.69 422.31,915.23 424.46,916.62 C 424.76,916.03 425.16,915.51 425.64,915.05 C 426.98,914.18 428.27,913.26 429.51,912.28 C 429.67,912.4 429.83,912.51 429.99,912.63 C 430.2,914.69 431.06,916.41 432.57,917.8 C 433.59,918.5 434.72,918.97 435.94,919.2 C 436.56,919.09 437.13,918.84 437.64,918.45 C 437.25,917.83 436.99,917.17 436.83,916.46 C 436.77,915.94 436.96,915.56 437.41,915.33 C 437.89,915.7 438.38,916.06 438.88,916.4 C 441.52,917.51 444.14,918.68 446.75,919.88 C 447.62,920.46 448.54,920.6 449.53,920.3 C 449.7,920.42 449.87,920.54 450.04,920.66 C 450.25,921.3 450.42,921.95 450.55,922.6 C 450.84,922.5 451.14,922.44 451.44,922.42 C 459,925.65 466.42,929.18 473.71,933.02 C 477.44,934.64 481.19,936.22 484.97,937.76 C 485.69,938.18 486.21,938.79 486.52,939.59 C 487.69,938.66 488.97,938.46 490.36,938.98 C 490.89,939.42 491.25,939.96 491.46,940.62 C 491.65,940.08 491.98,939.64 492.45,939.31 C 493.04,939.93 493.61,940.58 494.15,941.26 C 496.53,943.52 499.35,944.62 502.6,944.56 C 501.55,944.2 500.94,943.48 500.74,942.41 C 500.95,941.3 501.54,941.03 502.52,941.6 C 502.75,941.08 503.07,940.64 503.5,940.27 C 504.55,940.78 505.61,941.29 506.69,941.79 C 507.79,942.29 508.91,942.56 510.05,942.61 C 510.16,943.19 509.96,943.63 509.45,943.94 C 508.55,944.21 507.64,944.34 506.7,944.33 C 505.96,945.28 506.19,945.69 507.4,945.56 C 510.32,948.27 513.75,949.89 517.69,950.42 C 518.57,950.65 519.2,950.36 519.58,949.56 C 516.53,948.85 516.54,948.02 519.63,947.07 C 522.61,946.59 524.6,947.78 525.57,950.63 C 526.21,950.03 526.77,949.37 527.22,948.64 C 529.37,948.67 531.47,948.98 533.54,949.58 C 536.59,950.62 539.54,951.9 542.39,953.43 C 543.09,954 543.46,954.75 543.5,955.67 C 544.1,953.95 544.77,953.92 545.51,955.59 C 545.7,955.02 546.04,954.59 546.55,954.29 C 547.29,954.8 547.58,955.52 547.41,956.44 C 547.03,957.42 546.36,958.14 545.4,958.59 C 545.57,959.01 545.86,959.3 546.28,959.45 C 548.2,959.2 549.15,958.1 549.14,956.17 C 547.79,955.78 547.59,955.08 548.54,954.05 C 549.61,954.06 550.46,954.53 551.09,955.45 C 551.74,955.34 552.36,955.41 552.95,955.66 C 553.28,956.58 553.38,957.52 553.24,958.5 C 552.7,960.12 552.08,960.08 551.4,958.39 C 550.94,958.49 550.61,958.75 550.39,959.16 C 551.86,961.21 553.72,961.74 555.97,960.76 C 556.9,960.03 557.76,959.22 558.53,958.34 C 559.17,959.26 560.01,959.94 561.04,960.38 C 561.91,960.76 562.79,960.81 563.68,960.53 C 563.11,959.9 562.65,959.22 562.29,958.47 C 562.52,958.01 562.88,957.87 563.37,958.03 C 565.02,958.93 566.75,959.61 568.56,960.07 C 568.82,960.42 568.76,960.72 568.38,960.97 C 567.07,961.38 567.05,961.85 568.31,962.38 C 569.08,962.24 569.83,962.03 570.56,961.76 C 571.7,961.07 572.7,960.22 573.56,959.21 C 573.94,959.84 574.34,960.42 574.74,960.98 C 577.98,961.48 581.22,961.58 584.48,961.26 C 584.91,961.63 585.25,962.07 585.5,962.59 C 589.3,960.58 592.78,961.04 595.93,963.97 C 596,964.55 595.81,965.06 595.39,965.51 C 595.61,965.74 595.88,965.8 596.21,965.69 C 596.58,965.23 596.84,964.7 597,964.11 C 599.08,963.28 601.25,963.01 603.49,963.3 C 609.42,963.87 615.13,965.3 620.61,967.59 C 620.94,967.65 621.26,967.63 621.58,967.55 C 619.95,966.9 619.92,966.31 621.48,965.79 C 623.48,965.83 625.46,965.68 627.42,965.34 C 628.53,965.25 629.57,964.92 630.52,964.35 C 630.91,964.73 631.32,965.06 631.76,965.35 C 635.37,965.87 638.99,966.33 642.62,966.72 C 644.36,966.99 646.06,967.41 647.73,967.98 C 648.08,968.03 648.27,968.22 648.31,968.57 C 648.27,969.28 648.34,969.98 648.52,970.66 C 648.46,968.48 649.53,967.19 651.74,966.78 C 654.01,966.35 656.28,966.06 658.58,965.92 C 659.71,965.98 660.01,966.51 659.48,967.52 C 660.24,967.38 660.99,967.1 661.71,966.68 C 667.95,965.43 674.22,964.37 680.53,963.52 C 682.53,963.38 684.53,963.3 686.53,963.27 C 686.99,963.7 687.38,964.18 687.71,964.73 C 687.87,964.73 688.03,964.73 688.19,964.73 C 688.71,963.79 689.46,963.11 690.43,962.68 C 691.74,962.64 693.04,962.64 694.35,962.69 C 694.72,962.46 694.84,962.13 694.72,961.7 C 693.83,961.47 693.03,961.07 692.32,960.51 C 692.43,960.34 692.55,960.17 692.66,960 C 693.98,959.89 695.28,959.64 696.55,959.27 C 697.12,959.98 697.52,960.77 697.76,961.66 C 700.99,961.11 704.23,960.99 707.5,961.3 C 708.47,961.27 709.14,961.7 709.5,962.6 C 710.24,960.78 711.52,960.27 713.34,961.05 C 713.47,961.22 713.6,961.39 713.73,961.55 C 713.39,962.03 712.95,962.4 712.4,962.64 C 712.57,963.11 712.9,963.35 713.4,963.34 C 715.31,960.34 717.91,959.45 721.2,960.68 C 721.84,961.1 722.34,961.65 722.71,962.33 C 722.96,962.55 723.23,962.64 723.54,962.57 C 723.18,961.85 722.81,961.12 722.44,960.4 C 724.03,959.34 725.75,958.58 727.61,958.1 C 734.02,956.36 740.43,954.65 746.85,952.98 C 748.46,952.52 749.99,951.91 751.47,951.14 C 750.81,950.37 750.85,949.64 751.57,948.96 C 752.21,948.8 752.68,949.01 752.98,949.6 C 753.16,950.27 753.32,950.93 753.44,951.6 C 756.88,949.66 760.54,948.95 764.44,949.47 C 765.22,949.71 765.91,950.1 766.53,950.63 C 766.74,949.81 766.55,949.06 765.95,948.37 C 765.77,947.88 765.91,947.53 766.38,947.31 C 769.54,946.31 772.71,945.29 775.9,944.26 C 776.23,944.11 776.5,943.88 776.68,943.57 C 775.58,943.1 774.68,942.37 774,941.39 C 773.95,940.29 774.44,939.57 775.48,939.25 C 777.32,942.49 780.02,943.62 783.57,942.67 C 784.5,942.18 785.39,941.64 786.25,941.03 C 786.6,940.42 787.02,939.84 787.49,939.31 C 788.1,939.52 788.68,939.49 789.24,939.21 C 790.76,937.92 792.42,936.85 794.22,935.99 C 795.34,935.59 796.51,935.42 797.71,935.47 C 797.09,934.81 796.37,934.28 795.55,933.89 C 795.07,933.61 794.87,933.19 794.97,932.65 C 795.45,932.33 795.97,932.31 796.51,932.59 C 796.73,932.02 797.1,931.57 797.62,931.25 C 799.74,930.66 801.9,930.23 804.09,929.95 C 802.79,930.68 801.57,931.56 800.43,932.58 C 800.66,933.07 801.04,933.36 801.57,933.45 C 802.83,933.33 804.06,933.05 805.25,932.61 C 806.28,931.98 807.3,931.33 808.31,930.65 C 808.43,930.13 808.46,929.59 808.39,929.02 C 809.42,928.65 810.47,928.36 811.55,928.16 C 814.16,927.84 816.77,927.61 819.4,927.49 C 819.93,927.69 820.32,928.05 820.58,928.56 C 821.11,927.31 821.96,926.32 823.13,925.6 C 826.11,923.52 829.19,921.61 832.37,919.85 C 833.16,919.27 833.91,918.65 834.64,917.99 C 835.57,918.07 836.24,918.56 836.63,919.46 C 838.43,919.55 839.87,918.88 840.97,917.47 C 841.42,916.58 841.97,915.76 842.62,915.03 C 843.23,914.85 843.7,915.04 844.04,915.57 C 844.34,916.24 844.71,916.87 845.13,917.47 C 845.65,917.79 846.16,917.79 846.66,917.46 C 846.15,916.96 845.76,916.41 845.47,915.82 C 848.54,912.57 851.88,909.62 855.49,906.98 C 858.65,904.2 862.21,902.1 866.16,900.66 C 866.97,900.68 867.78,900.65 868.59,900.57 C 868.04,900.34 867.63,899.99 867.34,899.49 C 868.13,898.86 868.86,898.14 869.51,897.33 C 869.99,897.82 870.45,898.31 870.89,898.81 C 872.91,898.65 874.81,898.08 876.58,897.1 C 877.26,897.04 877.88,897.22 878.44,897.64 C 878.72,896.63 879.38,896.22 880.39,896.4 C 882.85,894.64 885.24,892.77 887.53,890.8 C 888.49,889.88 889.42,888.92 890.31,887.94 C 890.5,886.96 890.89,886.07 891.46,885.29 C 891.94,885.63 892.28,886.09 892.49,886.66 C 893.95,885.33 895.58,884.23 897.38,883.38 C 900.33,881.91 903.39,880.7 906.54,879.74 C 907.23,879.34 907.92,878.93 908.6,878.52 C 908.03,878.36 907.58,878.05 907.25,877.58 C 907.31,877.38 907.37,877.18 907.43,876.98 C 910.25,874.52 912.94,871.95 915.5,869.25 C 916.14,869.91 916.48,870.71 916.52,871.65 C 917.37,871.31 918.17,870.88 918.92,870.37 C 920.99,866.87 923.22,863.47 925.61,860.18 C 927,858.48 928.69,857.17 930.67,856.24 C 931.18,854.84 932.02,853.66 933.2,852.71 C 934.54,851.43 936.06,850.42 937.76,849.68 C 938.38,849.62 938.98,849.56 939.59,849.52 C 939.18,849.03 939.03,848.48 939.16,847.88 C 942.6,846.34 945.33,843.98 947.34,840.81 C 947.23,840.17 947.32,839.56 947.59,839 C 948.59,838.5 949.6,838.01 950.61,837.54 C 950.06,837.33 949.6,836.98 949.24,836.51 C 949.72,835.46 950.45,834.6 951.44,833.94 C 951.51,833.46 951.46,832.98 951.27,832.5 C 951.49,832.03 951.86,831.86 952.38,832 C 954.29,833.22 956.25,834.37 958.28,835.42 C 958.83,835.95 959.38,836.48 959.92,837.03 Z"/></g>
<g><path fill="#ebebeb" stroke="#ebebeb" stroke-width="0.5" d="M 362.02,832.93 C 357.85,836.03 353.61,839.04 349.32,841.98 C 345.43,844.74 341.46,847.38 337.41,849.92 C 334.29,851.91 331.05,853.66 327.69,855.17 C 321.93,847.42 316.35,839.54 310.96,831.53 C 298.79,812.99 288.19,793.59 279.17,773.34 C 261.9,733.39 250.91,691.77 246.2,648.5 C 243.6,623.98 243.33,599.43 245.39,574.85 C 245.65,575.06 245.84,575.32 245.96,575.63 C 246.09,576.64 246.27,577.63 246.48,578.6 C 246.7,577.24 246.8,575.88 246.78,574.49 C 247.24,573.24 247.67,571.97 248.07,570.69 C 248.5,570.34 248.99,570.3 249.51,570.56 C 250.13,568.89 250.71,568.87 251.25,570.49 C 251.23,571.21 251.31,571.9 251.49,572.57 C 251.94,572.37 252.32,572.44 252.63,572.79 C 253.33,573.87 253.92,575 254.4,576.19 C 254.88,576.58 255.31,577.02 255.67,577.5 C 255.09,578.22 254.46,578.9 253.79,579.55 C 253.54,580.57 253.82,581.42 254.65,582.09 C 255.43,582.46 256.15,582.93 256.79,583.47 C 256.41,583.94 255.94,584.29 255.38,584.52 C 257.24,584.97 257.59,585.94 256.42,587.43 C 256.76,588.17 257.12,588.91 257.49,589.64 C 257.47,588.68 257.8,587.89 258.48,587.27 C 259.08,587.64 259.4,588.19 259.43,588.92 C 257.28,592.67 256.71,596.67 257.72,600.9 C 258.84,604.35 259.47,607.87 259.6,611.48 C 259.49,615.33 258.67,619.02 257.15,622.54 C 257.99,621.5 259.05,620.99 260.36,621.01 C 261.18,622.61 261.87,624.29 262.42,626.04 C 263.38,629.84 264.13,633.67 264.67,637.52 C 264.29,637.97 263.84,638.36 263.34,638.69 C 262.99,639.26 262.68,639.86 262.42,640.48 C 264.43,641.57 264.97,643.21 264.02,645.39 C 263.85,645.92 263.53,646.34 263.07,646.64 C 262.62,646.88 262.25,646.79 261.96,646.38 C 261.66,645.07 261.52,643.74 261.54,642.39 C 260.78,644.4 260.75,646.4 261.44,648.4 C 262.39,649.96 263.74,651.02 265.48,651.59 C 265.7,651.36 265.77,651.09 265.68,650.77 C 265.21,650.36 264.74,649.95 264.28,649.54 C 264.84,649 265.43,648.49 266.05,648.01 C 266.1,647.78 266.09,647.55 266.04,647.33 C 268.9,650.14 270.58,653.54 271.07,657.53 C 271.33,659.56 271.46,661.6 271.45,663.64 C 271.69,663.08 272.03,662.61 272.48,662.23 C 273.23,663.4 274.08,664.52 275.03,665.58 C 275.02,665.84 275.02,666.1 275.02,666.37 C 274.59,666.85 274.19,667.36 273.85,667.89 C 273.25,670.05 272.98,672.25 273.05,674.48 C 272.96,675.2 272.74,675.88 272.4,676.52 C 273.4,676.58 274.25,676.94 274.97,677.62 C 275.04,678.34 274.84,678.98 274.38,679.56 C 274.58,680.05 274.93,680.41 275.42,680.64 C 275.58,679.62 275.76,678.58 275.97,677.55 C 276.13,677.43 276.29,677.31 276.45,677.19 C 277.98,678.02 279.6,678.63 281.31,679.01 C 281.43,679.18 281.55,679.34 281.67,679.5 C 281.54,680.11 281.43,680.73 281.33,681.35 C 281.88,682.12 282.45,682.89 283.06,683.63 C 282.97,684.71 282.44,684.96 281.45,684.39 C 281.42,685.41 281.27,686.41 281,687.41 C 280.18,688.23 279.36,688.21 278.52,687.35 C 278.35,687.62 278.34,687.91 278.51,688.2 C 280.19,689.85 281.18,691.86 281.5,694.22 C 281.74,696.6 281.68,698.98 281.32,701.35 C 282.8,701.62 284.16,702.24 285.39,703.21 C 287.65,705.5 287.5,707.66 284.93,709.71 C 284.18,710.21 283.39,710.66 282.57,711.06 C 282.35,711.38 282.37,711.69 282.64,711.99 C 284.26,713.35 286.14,714.2 288.27,714.52 C 289.48,714.71 290.69,714.75 291.91,714.66 C 293.12,714.39 294.32,714.12 295.53,713.86 C 296.08,713.81 296.5,714 296.8,714.43 C 295.53,715.45 294.48,716.66 293.65,718.08 C 293.21,719.2 293.15,720.35 293.46,721.52 C 294.08,722.99 294.94,724.31 296.06,725.47 C 296.8,725.35 297.56,725.19 298.33,725 C 298.68,726.61 299.21,728.18 299.91,729.7 C 300.46,730.17 300.86,730.72 301.12,731.36 C 301.02,730.37 300.88,729.38 300.72,728.39 C 301.09,727.19 301.69,726.14 302.51,725.22 C 303.14,725.56 303.64,726.04 304.01,726.66 C 305.91,729.24 307.41,732.04 308.5,735.05 C 308.66,735.53 308.62,736 308.38,736.46 C 308.94,736.69 309.39,737.03 309.75,737.5 C 309.12,738.09 308.53,738.73 307.97,739.42 C 306.78,741.22 306.99,742.86 308.61,744.34 C 309.41,744.54 310.11,744.91 310.71,745.45 C 310.4,745.96 309.96,746.34 309.4,746.6 C 310.06,746.68 310.71,746.8 311.35,746.97 C 311.78,747.44 311.81,747.95 311.45,748.51 C 312.44,748.51 313.28,748.19 313.98,747.55 C 313.93,747.55 313.88,747.55 313.83,747.55 C 318.31,747.47 320.38,749.68 320.04,754.2 C 319.65,755.7 319.11,757.14 318.4,758.53 C 318.28,758.92 318.31,759.28 318.5,759.62 C 319.78,758.43 321.27,758.12 322.95,758.68 C 323.47,759.34 323.54,760.05 323.17,760.83 C 322.71,761.83 322.1,762.73 321.36,763.53 C 321.63,764.03 322.02,764.4 322.54,764.64 C 323.05,764.28 323.5,763.86 323.91,763.38 C 325.02,762.62 326.2,762.47 327.46,762.95 C 328.02,763.26 328.2,763.71 327.99,764.31 C 327.62,764.74 327.27,765.18 326.93,765.61 C 325.94,770.93 327.58,775.26 331.86,778.6 C 332.79,779.26 333.75,779.86 334.76,780.4 C 335.86,780.54 336.86,780.9 337.75,781.48 C 337.48,781.97 337.07,782.25 336.51,782.33 C 335.79,782.35 335.08,782.44 334.39,782.6 C 335.69,783.63 336.4,784.97 336.5,786.63 C 337.06,784.85 337.72,784.82 338.49,786.53 C 339.05,786.25 339.56,786.3 340.02,786.67 C 340.29,788.64 340.44,790.62 340.48,792.61 C 340.68,791.92 341.07,791.37 341.64,790.94 C 341.9,790.96 342.15,790.97 342.41,790.99 C 346.18,795.54 349.92,800.14 353.62,804.77 C 354.35,805.55 354.7,806.48 354.68,807.55 C 354.14,808.11 353.48,808.38 352.67,808.36 C 350.9,812.76 352.26,815.77 356.76,817.39 C 357.7,817.2 358.29,817.61 358.52,818.6 C 358.67,817.99 358.74,817.36 358.72,816.72 C 357.81,816.5 356.98,816.12 356.22,815.58 C 356.34,815.4 356.46,815.22 356.58,815.04 C 357.32,814.91 358,814.66 358.62,814.31 C 358.62,813.5 358.91,812.83 359.48,812.31 C 360.83,812.41 362.18,812.38 363.53,812.21 C 364.75,814.52 366.18,816.72 367.8,818.82 C 368.16,819.28 368.25,819.79 368.08,820.34 C 367.23,820.56 366.35,820.67 365.42,820.67 C 364.85,820.01 364.45,819.25 364.22,818.38 C 363.65,818.04 363.08,817.7 362.5,817.38 C 362.36,817.66 362.35,817.95 362.47,818.26 C 363.18,820.89 364.35,823.3 365.97,825.47 C 366.67,825.61 367.27,825.92 367.78,826.38 C 367.7,826.84 367.46,827.2 367.05,827.44 C 365,828.44 363.36,829.91 362.15,831.84 C 362.01,832.19 361.97,832.56 362.02,832.93 Z"/></g>
<g><path fill="#aeaeb1" d="M 340.84,353.21 C 340.9,353.86 340.71,354.43 340.28,354.93 C 333.82,361.82 327.71,369.02 321.95,376.52 C 277.38,435.29 251.86,501.4 245.39,574.85 C 243.33,599.43 243.6,623.98 246.2,648.5 C 250.91,691.77 261.9,733.39 279.17,773.34 C 288.19,793.59 298.79,812.99 310.96,831.53 C 316.35,839.54 321.93,847.42 327.69,855.17 C 326.87,855.59 326.2,856.18 325.7,856.94 C 318.72,847.51 312.01,837.88 305.56,828.06 C 287.37,799.75 273.1,769.58 262.74,737.56 C 249.38,696.94 242.29,655.25 241.46,612.5 C 240.74,555.16 252.15,500.35 275.7,448.06 C 290.91,414.87 310.55,384.55 334.6,357.1 C 335.02,356.63 335.51,356.26 336.08,355.99 C 336.76,355.95 337.39,355.75 337.98,355.4 C 338.99,354.75 339.95,354.02 340.84,353.21 Z M 900.08,906.28 C 900.22,906.72 900.52,906.97 901,907.03 C 900.98,907.39 900.97,907.75 900.95,908.11 C 896.8,912.06 892.5,915.88 888.06,919.56 C 869.21,935.16 849.18,949.07 827.97,961.28 C 772.35,993.1 712.53,1009.98 648.5,1011.91 C 600.39,1012.98 553.65,1005.47 508.29,989.4 C 465.04,973.42 425.57,950.83 389.88,921.63 C 388.98,921.02 388.62,920.17 388.8,919.1 C 389.42,918.64 390.09,918.25 390.8,917.94 C 390.61,918.47 390.67,918.97 390.97,919.44 C 398.72,925.44 406.54,931.34 414.43,937.15 C 463.94,972.3 518.65,994.78 578.56,1004.59 C 606.39,1008.95 634.37,1010.3 662.5,1008.63 C 710.42,1005.41 756.11,993.54 799.56,973.01 C 828.13,959.41 854.79,942.75 879.55,923.04 C 884.81,918.6 890.07,914.15 895.33,909.7 C 896.84,908.46 898.42,907.31 900.08,906.28 Z"/></g>
<g><path fill="#666668" d="M 386.13,307.26 C 386.77,307.17 387.41,307.08 388.04,306.99 C 388.46,307.1 388.8,307.32 389.06,307.65 C 381.57,314.15 374.11,320.68 366.68,327.25 C 357.75,335.6 349.14,344.25 340.84,353.21 C 339.95,354.02 338.99,354.75 337.98,355.4 C 337.39,355.75 336.76,355.95 336.08,355.99 C 335.92,355.67 335.76,355.34 335.6,355.01 C 337.23,354.81 337.36,354.2 335.97,353.19 C 336.79,353.35 337.48,353.12 338.04,352.51 C 341.76,348.56 345.38,344.52 348.9,340.4 C 354.04,335.75 359.04,330.97 363.89,326.04 C 365.08,325.07 366.13,323.97 367.04,322.73 C 367.74,322.41 368.38,322 368.97,321.5 C 373.93,317.12 378.9,312.74 383.88,308.37 C 384.51,307.76 385.27,307.39 386.13,307.26 Z M 970.03,887.98 C 970.65,887.92 971.19,887.66 971.63,887.22 C 972.63,886.11 973.67,885.07 974.77,884.07 C 975.6,883.95 975.86,884.29 975.53,885.08 C 969.19,892.07 962.65,898.86 955.9,905.44 C 954.22,906.45 953.91,906.11 954.99,904.42 C 959.87,899.7 964.65,894.88 969.35,889.97 C 969.79,889.38 970.02,888.72 970.03,887.98 Z"/></g>
<g><path fill="#9e9e9d" stroke="#9e9e9d" stroke-width="0.5" d="M 965.31,920.95 C 965.31,920.66 965.46,920.48 965.75,920.4 C 967.82,919.96 969.77,919.19 971.6,918.12 C 975.54,915.4 978.86,912.06 981.56,908.1 C 982.75,905.95 984.04,903.87 985.43,901.85 C 986.33,900.98 986.8,901.18 986.85,902.46 C 987.23,906.78 985.99,910.58 983.15,913.86 C 981.37,915.72 979.55,917.53 977.68,919.3 C 976.38,920.38 974.94,921.24 973.36,921.87 C 971.07,922.5 968.78,922.52 966.5,921.93 C 966,921.72 965.61,921.4 965.31,920.95 Z"/></g>
<g><path fill="#7f7f7f" stroke="#7f7f7f" stroke-width="0.5" d="M 970.03,887.98 C 969.33,887.97 968.75,888.23 968.28,888.75 C 961.54,896.04 954.51,903.02 947.16,909.69 C 945.56,911.14 943.86,912.44 942.05,913.61 C 940.84,914.04 939.61,914.36 938.35,914.59 C 937.64,914.68 936.96,914.58 936.3,914.29 C 933.48,912.57 931.07,910.4 929.08,907.77 C 928.71,906.75 928.94,905.88 929.76,905.15 C 934.48,900.92 939.17,896.65 943.81,892.33 C 949.85,886.34 955.62,880.12 961.11,873.64 C 963.31,870.73 965.27,867.66 966.98,864.43 C 968.13,861.95 968.88,859.36 969.21,856.64 C 969.38,856.5 969.55,856.37 969.72,856.23 C 971.94,857.41 974,858.86 975.9,860.58 C 977.1,861.66 978.21,862.84 979.23,864.1 C 980.2,865.76 980.62,867.55 980.49,869.49 C 980.37,871.81 979.7,873.98 978.48,875.99 C 977.19,878.04 975.84,880.06 974.42,882.03 C 972.92,883.54 971.47,885.09 970.09,886.71 C 969.92,887.13 969.91,887.55 970.03,887.98 Z"/></g>
<g><path fill="#868784" d="M 972.05,899.65 C 971.49,899.22 970.91,898.81 970.31,898.44 C 970.36,897.2 970.89,896.96 971.9,897.72 C 973.93,899.64 975.92,901.6 977.87,903.59 C 978.35,904.07 978.66,904.63 978.79,905.29 C 978.3,905.47 977.85,905.37 977.43,904.98 C 975.69,903.16 973.89,901.38 972.05,899.65 Z"/></g>
<g><path fill="#626262" d="M 969.25,849.32 C 968.86,850.67 967.96,851.43 966.55,851.61 C 966.18,850.7 965.72,849.86 965.15,849.09 C 965.2,848.31 965.65,847.92 966.48,847.94 C 967.57,848.05 968.49,848.51 969.25,849.32 Z"/></g>
<g><path fill="#0149a8" stroke="#0149a8" stroke-width="0.5" d="M 862.89,276.7 C 889.44,293.57 913.4,313.54 934.78,336.62 C 935.42,337.33 935.79,338.15 935.89,339.1 C 935.12,339.83 934.58,340.7 934.26,341.72 C 929.65,353.67 924.22,365.24 917.97,376.43 C 902.92,403.15 886.35,428.89 868.25,453.65 C 843.4,487.56 817.32,520.51 790.01,552.48 C 790,552.08 789.84,551.78 789.51,551.58 C 788.51,552.74 787.38,553.75 786.12,554.62 C 785.1,556 784.17,557.44 783.32,558.94 C 783.09,559.1 782.87,559.26 782.64,559.42 C 781.67,559.34 780.69,559.27 779.72,559.2 C 779.13,559.91 779.1,560.67 779.64,561.48 C 778.88,561.87 778.1,562.21 777.3,562.51 C 777.56,562.91 777.85,563.29 778.16,563.65 C 778.12,563.83 778.07,564.01 778.02,564.18 C 777.48,564.43 776.97,564.71 776.47,565.04 C 776.27,565.77 776.01,566.48 775.7,567.17 C 775.38,567.49 774.99,567.65 774.54,567.65 C 774.2,567.24 773.86,566.82 773.52,566.4 C 772.2,567.26 771.11,568.35 770.26,569.67 C 770.27,571.22 770.95,572.35 772.28,573.05 C 742.89,606.82 712.59,639.77 681.39,671.89 C 630.04,725.02 576.39,775.69 520.42,823.93 C 507.58,834.76 494.59,845.41 481.44,855.87 C 457.95,874.91 433.4,892.48 407.8,908.56 C 402.3,911.99 396.63,915.11 390.8,917.94 C 390.09,918.25 389.42,918.64 388.8,919.1 C 388.36,919.42 387.86,919.56 387.32,919.53 C 383.63,916.76 380.08,913.82 376.66,910.7 C 376.04,910.22 375.55,909.62 375.2,908.91 C 375.4,907.38 375.38,905.85 375.14,904.34 C 374.61,902.96 373.88,901.69 372.94,900.54 C 369.72,898.48 366.6,896.27 363.6,893.89 C 358.94,889.47 354.7,884.68 350.87,879.54 C 349.25,879.59 348.67,878.82 349.12,877.24 C 347.68,875.43 346.45,873.5 345.42,871.44 C 346.24,870.43 347.04,869.4 347.83,868.36 C 348.09,867.33 348,866.35 347.58,865.41 C 347.25,866.17 346.9,866.91 346.53,867.64 C 346.26,867.15 345.92,866.72 345.5,866.37 C 344.89,866.63 344.26,866.78 343.61,866.85 C 343.43,866.24 343.62,865.74 344.19,865.35 C 343.74,864.23 343.12,863.22 342.34,862.3 C 339.43,859.62 336.09,858.91 332.32,860.16 C 332.22,860.07 332.12,859.97 332.02,859.87 C 334.35,857.43 336.62,854.92 338.82,852.33 C 339.1,851.91 339.32,851.46 339.48,850.98 C 340.78,850.23 342.18,849.76 343.68,849.55 C 343.49,849.14 343.25,848.75 342.96,848.4 C 343.09,847.86 343.46,847.63 344.06,847.7 C 345.38,848.41 346.74,848.37 348.14,847.59 C 349.76,846.26 350.56,844.53 350.55,842.4 C 350.2,842.1 349.79,841.96 349.32,841.98 C 353.61,839.04 357.85,836.03 362.02,832.93 C 396.25,807.59 429.35,780.83 461.3,752.66 C 543.13,680.52 620.03,603.47 692,521.51 C 717.65,492.36 742.5,462.55 766.56,432.08 C 785.17,408.38 802.84,384 819.57,358.94 C 833.6,338.03 846.07,316.24 856.99,293.55 C 858.72,289.79 860.26,285.95 861.62,282.04 C 861.98,281.05 862.06,280.03 861.86,279 C 861.97,278.13 862.31,277.36 862.89,276.7 Z"/></g>
<g><path fill="#828383" stroke="#828383" stroke-width="0.5" d="M 287.13,162.1 C 288.13,161.82 289.08,161.96 289.98,162.5 C 289.19,162.45 288.56,162.73 288.09,163.33 C 288.24,163.5 288.4,163.67 288.55,163.85 C 294.93,165.52 301.15,167.66 307.21,170.27 C 327.75,180.85 342.55,196.75 351.62,217.98 C 355.88,229.44 358.01,241.27 358.01,253.5 C 357.49,264.02 356.58,274.49 355.29,284.93 C 354.91,287.15 355.46,289.08 356.93,290.74 C 360.35,293.21 363.49,296.01 366.33,299.14 C 369.07,300.31 371.84,300.32 374.62,299.18 C 376.81,299.09 378.72,299.8 380.35,301.29 C 381.93,302.67 383.51,304.04 385.1,305.4 C 385.6,305.93 385.95,306.55 386.13,307.26 C 385.27,307.39 384.51,307.76 383.88,308.37 C 378.9,312.74 373.93,317.12 368.97,321.5 C 368.38,322 367.74,322.41 367.04,322.73 C 366.4,321.25 365.85,319.73 365.37,318.17 C 364.86,317.04 364.24,315.99 363.5,314.99 C 358.9,309.77 353.52,305.5 347.39,302.19 C 345.33,301.78 343.29,301.45 341.25,301.17 C 340.42,301.25 339.58,301.32 338.74,301.39 C 338.04,302.89 338.29,304.19 339.5,305.28 C 339.55,306.69 339.86,308.04 340.43,309.32 C 340.96,310.35 341.6,311.3 342.36,312.17 C 345.07,315.12 347.92,317.94 350.89,320.63 C 353.07,322.61 355.56,324.05 358.36,324.96 C 360.22,325.31 362.07,325.67 363.89,326.04 C 359.04,330.97 354.04,335.75 348.9,340.4 C 345.38,344.52 341.76,348.56 338.04,352.51 C 337.48,353.12 336.79,353.35 335.97,353.19 C 334.31,350.96 332.48,348.88 330.51,346.92 C 329.92,346.15 329.45,345.32 329.08,344.43 C 329.05,340.13 328.97,335.84 328.82,331.56 C 328.61,330.68 328.05,330.17 327.15,330.01 C 326.8,329.19 326.25,328.53 325.48,328.04 C 325.17,327.61 325.02,327.13 325.04,326.6 C 325.38,325.39 325.94,324.3 326.72,323.3 C 326.89,322.53 326.6,322.25 325.86,322.45 C 325.28,323.77 324.43,324.9 323.33,325.85 C 322.48,326.45 321.54,326.76 320.5,326.8 C 316.5,326.48 312.5,326.14 308.5,325.77 C 301.5,324.78 294.51,323.82 287.51,322.88 C 281.19,321.66 274.89,320.31 268.61,318.83 C 261,316.88 253.6,314.29 246.43,311.06 C 232.16,304.67 220.21,295.31 210.6,283 C 207.52,278.64 204.76,274.07 202.33,269.31 C 200.8,266.06 199.44,262.74 198.24,259.36 C 197.44,257.09 196.78,254.78 196.27,252.42 C 196.11,250.42 195.72,248.46 195.12,246.54 C 194.69,242.2 194.31,237.86 193.99,233.5 C 194.36,229.82 194.73,226.13 195.11,222.44 C 195.7,219.48 196.4,216.54 197.19,213.62 C 198.23,210.68 199.27,207.74 200.32,204.81 C 204.12,196.67 209.06,189.3 215.14,182.69 C 217.42,180.96 219.61,179.13 221.71,177.19 C 228.67,171.89 236.31,167.9 244.63,165.21 C 247.23,164.41 249.86,163.73 252.52,163.16 C 258.13,162.15 263.79,161.61 269.5,161.54 C 272.84,161.69 276.17,161.87 279.5,162.08 C 281.83,162.69 284.2,162.96 286.61,162.89 C 287.04,162.78 287.21,162.51 287.13,162.1 Z M 214.79,235 C 214.82,237.17 214.92,239.34 215.08,241.5 C 215.63,243.44 215.99,245.42 216.16,247.43 C 220.55,263.97 229.78,277.13 243.84,286.89 C 250.89,291.58 258.43,295.24 266.47,297.87 C 273.13,299.81 279.85,301.45 286.63,302.79 C 292.99,303.63 299.32,304.59 305.63,305.67 C 311.22,306.29 316.81,306.79 322.42,307.18 C 322.93,307.29 323.37,307.52 323.75,307.89 C 324.91,309.31 326.02,310.78 327.08,312.28 C 327.44,312.65 327.87,312.85 328.38,312.89 C 328.67,312.58 328.69,312.24 328.43,311.88 C 325.9,309.54 325.61,306.96 327.58,304.15 C 329.38,302.26 331.06,300.28 332.63,298.2 C 333.32,297.56 334.05,296.97 334.81,296.42 C 334.25,295.53 333.93,294.57 333.84,293.52 C 333.93,291.84 333.99,290.17 334.03,288.49 C 335.26,279.86 336.25,271.2 337,262.5 C 337.01,256.83 337,251.16 336.98,245.5 C 334.98,224.46 325.55,207.56 308.68,194.8 C 302.16,190.14 295.08,186.64 287.43,184.28 C 284.5,183.37 281.52,182.65 278.5,182.12 C 272.5,181.51 266.5,181.47 260.49,181.99 C 247.59,183.95 236.71,189.74 227.86,199.36 C 224.86,202.82 222.3,206.59 220.2,210.66 C 219.04,213.26 218.02,215.91 217.13,218.61 C 216.32,221.24 215.65,223.9 215.12,226.6 C 214.86,229.39 214.75,232.19 214.79,235 Z M 960.31,838.05 C 960.78,838.53 961.02,839.12 961.01,839.81 C 960.52,840.72 960.13,841.67 959.84,842.65 C 959.08,842.95 958.83,843.49 959.07,844.26 C 960.99,845.78 962.57,847.61 963.8,849.75 C 964.09,849.99 964.42,850.1 964.8,850.08 C 964.51,852.81 964.03,855.53 963.36,858.25 C 962.38,860.49 961.31,862.68 960.15,864.84 C 958.5,867.14 956.87,869.45 955.24,871.76 C 952.39,874.91 949.7,878.2 947.16,881.61 C 943.38,885.85 939.44,889.92 935.33,893.83 C 932.2,896.42 929.07,898.99 925.94,901.54 C 923.87,902.51 921.76,903.37 919.6,904.12 C 916.93,905.74 914.19,907.24 911.39,908.63 C 909.09,909.48 906.77,909.58 904.42,908.92 C 903.67,908.41 902.96,907.85 902.3,907.23 C 901.88,907.02 901.45,906.95 901,907.03 C 900.52,906.97 900.22,906.72 900.08,906.28 C 906.53,900.17 912.87,893.94 919.1,887.6 C 930.65,875.13 941.71,862.26 952.29,848.96 C 954.39,845.68 956.56,842.46 958.82,839.28 C 959.24,838.78 959.74,838.37 960.31,838.05 Z M 963.31,988.36 C 962.65,987.01 961.81,985.78 960.8,984.65 C 959.33,983.02 957.74,981.56 956.01,980.28 C 953.34,977.04 950.55,973.9 947.63,970.87 C 935.93,958.9 924.27,946.89 912.67,934.84 C 911,932.83 909.44,930.73 908,928.55 C 905.65,924.15 904.66,919.47 905.02,914.5 C 905.03,913.41 905.37,912.45 906.04,911.62 C 908.24,911.28 910.38,910.7 912.46,909.9 C 915.17,908.38 917.93,906.96 920.73,905.64 C 921.54,905.33 922.36,905.29 923.2,905.49 C 923.68,905.68 923.93,906.04 923.95,906.56 C 923.65,907.87 923.35,909.18 923.04,910.49 C 922.82,912.15 922.75,913.82 922.82,915.5 C 923.1,918.44 924.36,920.92 926.59,922.91 C 933.33,930.05 940.14,937.13 947,944.15 C 953.37,950.87 959.85,957.48 966.42,963.99 C 974.17,972.26 982.04,980.43 990.01,988.49 C 995.36,993.39 1001.54,996.81 1008.55,998.74 C 1010.23,999.02 1011.88,999.41 1013.5,999.92 C 1018.47,1000.37 1023.44,1000.36 1028.4,999.89 C 1029.91,999.29 1031.47,998.91 1033.08,998.76 C 1037.71,997.26 1042.03,995.15 1046.04,992.42 C 1048.77,990.22 1051.36,987.86 1053.81,985.36 C 1056.57,982.24 1058.93,978.84 1060.9,975.17 C 1062.07,972.33 1063.06,969.43 1063.86,966.48 C 1064.27,963.81 1064.68,961.15 1065.1,958.5 C 1065.04,956.17 1064.97,953.84 1064.88,951.5 C 1064.28,949.54 1063.91,947.53 1063.75,945.47 C 1062.19,938 1058.83,931.46 1053.65,925.85 C 1048.82,921 1044.15,916.01 1039.64,910.86 C 1026.55,897 1013.32,883.29 999.93,869.72 C 996.7,866.73 992.88,865.1 988.5,864.82 C 986.53,864.93 984.57,865.13 982.64,865.42 C 981.32,863.9 979.96,862.42 978.56,860.97 C 976.17,858.56 973.51,856.51 970.57,854.83 C 969.65,854.37 968.69,854.22 967.68,854.39 C 967.37,854.02 967.03,853.68 966.67,853.36 C 969.63,851.97 972.54,850.5 975.4,848.93 C 976.79,848.37 978.2,847.84 979.61,847.34 C 981.31,847.11 983,846.77 984.66,846.32 C 986.59,846.25 988.53,846.26 990.47,846.33 C 993.18,846.77 995.86,847.34 998.51,848.02 C 1004.2,850.31 1009.31,853.53 1013.84,857.68 C 1019.41,863.43 1024.91,869.26 1030.35,875.15 C 1034.09,879.09 1037.97,882.87 1042.01,886.49 C 1050.25,895.56 1058.75,904.39 1067.49,912.98 C 1069.25,915.18 1070.97,917.41 1072.65,919.69 C 1073.9,921.53 1075.11,923.41 1076.27,925.31 C 1078.55,929.67 1080.35,934.21 1081.67,938.94 C 1082.6,942.43 1083.28,945.95 1083.72,949.53 C 1084,952.51 1084.09,955.5 1083.99,958.5 C 1083.77,964.95 1082.64,971.24 1080.6,977.36 C 1074.11,994.47 1062.54,1006.82 1045.87,1014.42 C 1040.55,1016.42 1035.09,1017.87 1029.48,1018.78 C 1024.83,1019.05 1020.16,1019.12 1015.5,1018.99 C 1012.49,1018.75 1009.51,1018.34 1006.56,1017.75 C 1003.22,1016.79 999.9,1015.74 996.62,1014.6 C 989.82,1011.91 983.77,1008.06 978.47,1003.03 C 973.94,998.22 969.35,993.46 964.71,988.76 C 964.34,988.27 963.87,988.14 963.31,988.36 Z M 1069.22,913.1 C 1069.5,913.34 1069.7,913.63 1069.8,914 C 1069.35,913.86 1069.16,913.56 1069.22,913.1 Z M 1013.81,1004.87 C 1014.18,1005.51 1014.73,1005.86 1015.47,1005.92 C 1018.45,1005.75 1021.39,1005.98 1024.3,1006.62 C 1024.69,1006.85 1025.09,1007.05 1025.5,1007.22 C 1026.1,1006.71 1026.77,1006.37 1027.52,1006.19 C 1030.52,1005.58 1033.55,1005.11 1036.59,1004.76 C 1037.21,1005.27 1037.84,1005.78 1038.49,1006.27 C 1039.08,1006.27 1039.63,1006.11 1040.13,1005.79 C 1041.94,1004.93 1043.72,1004.01 1045.47,1003.04 C 1045.75,1002.63 1045.78,1002.18 1045.56,1001.69 C 1046.47,1000.72 1047.44,999.82 1048.49,998.99 C 1051.6,997 1054.77,995.11 1058.01,993.33 C 1062.32,990.97 1064.64,987.36 1064.98,982.5 C 1064.9,981.16 1064.4,980.97 1063.47,981.92 C 1060.31,986.07 1056.84,989.94 1053.06,993.51 C 1044.66,1000.05 1035.15,1003.63 1024.52,1004.26 C 1021.47,1004.41 1018.42,1004.46 1015.36,1004.4 C 1014.81,1004.45 1014.3,1004.61 1013.81,1004.87 Z"/></g>
<g><path fill="#969696" d="M 1013.81,1004.87 C 1014.3,1004.61 1014.81,1004.45 1015.36,1004.4 C 1022.86,1004.86 1030.2,1004.03 1037.39,1001.92 C 1045.06,999.56 1051.62,995.44 1057.07,989.58 C 1059.22,987.05 1061.36,984.49 1063.47,981.92 C 1064.4,980.97 1064.9,981.16 1064.98,982.5 C 1064.64,987.36 1062.32,990.97 1058.01,993.33 C 1054.77,995.11 1051.6,997 1048.49,998.99 C 1047.44,999.82 1046.47,1000.72 1045.56,1001.69 C 1045.78,1002.18 1045.75,1002.63 1045.47,1003.04 C 1043.72,1004.01 1041.94,1004.93 1040.13,1005.79 C 1039.63,1006.11 1039.08,1006.27 1038.49,1006.27 C 1037.84,1005.78 1037.21,1005.27 1036.59,1004.76 C 1033.55,1005.11 1030.52,1005.58 1027.52,1006.19 C 1026.77,1006.37 1026.1,1006.71 1025.5,1007.22 C 1023.92,1006.49 1022.26,1006.09 1020.5,1006.02 C 1018.83,1005.85 1017.15,1005.82 1015.47,1005.92 C 1014.73,1005.86 1014.18,1005.51 1013.81,1004.87 Z"/></g>
<g><path fill="#919293" stroke="#919293" stroke-width="0.5" d="M 367.04,322.73 C 366.13,323.97 365.08,325.07 363.89,326.04 C 362.07,325.67 360.22,325.31 358.36,324.96 C 355.56,324.05 353.07,322.61 350.89,320.63 C 347.92,317.94 345.07,315.12 342.36,312.17 C 341.6,311.3 340.96,310.35 340.43,309.32 C 339.86,308.04 339.55,306.69 339.5,305.28 C 338.29,304.19 338.04,302.89 338.74,301.39 C 339.58,301.32 340.42,301.25 341.25,301.17 C 343.29,301.45 345.33,301.78 347.39,302.19 C 353.52,305.5 358.9,309.77 363.5,314.99 C 364.24,315.99 364.86,317.04 365.37,318.17 C 365.85,319.73 366.4,321.25 367.04,322.73 Z"/></g>
<g><path fill="#afafb2" d="M 862.89,276.7 C 862.31,277.36 861.97,278.13 861.86,279 C 852.81,273.55 843.63,268.27 834.34,263.17 C 810.17,250.4 784.94,240.26 758.66,232.76 C 724.25,223.24 689.2,218.36 653.5,218.11 C 632.74,218.03 612.07,219.4 591.51,222.21 C 570.46,225.23 549.73,229.74 529.32,235.72 C 478.56,250.76 432.33,274.58 390.62,307.17 C 390.14,307.44 389.62,307.6 389.06,307.65 C 388.8,307.32 388.46,307.1 388.04,306.99 C 388.06,306.67 388.08,306.35 388.09,306.02 C 401.51,295 415.67,285.04 430.59,276.14 C 498.73,235.9 572.37,215.65 651.5,215.4 C 707.64,215.48 761.38,226.86 812.73,249.54 C 821.67,253.54 830.43,257.91 839.01,262.64 C 847.13,267.12 855.09,271.8 862.89,276.7 Z M 935.89,339.1 C 936.46,339.32 936.97,339.64 937.4,340.08 C 977.7,384.68 1005.76,435.98 1021.59,493.97 C 1029.43,522.29 1033.98,551.14 1035.25,580.5 C 1036.38,601.49 1035.89,622.44 1033.76,643.36 C 1032.3,655.05 1030.59,666.7 1028.65,678.32 C 1020.44,722.19 1005.69,763.73 984.41,802.96 C 977.64,815.24 970.25,827.15 962.24,838.66 C 961.97,839.21 961.56,839.6 961.01,839.81 C 961.02,839.12 960.78,838.53 960.31,838.05 C 960.18,837.71 960.05,837.37 959.92,837.03 C 965.84,828.66 971.38,820.05 976.55,811.19 C 1007.64,756.98 1026,698.75 1031.66,636.5 C 1033.99,606.77 1033.36,577.11 1029.75,547.51 C 1021.52,484.71 999.19,427.43 962.74,375.65 C 954.39,364.15 945.48,353.1 936.02,342.5 C 935.55,341.96 934.96,341.7 934.26,341.72 C 934.58,340.7 935.12,339.83 935.89,339.1 Z"/></g>
<g><path fill="#06449c" stroke="#06449c" stroke-width="0.5" d="M 349.32,841.98 C 349.79,841.96 350.2,842.1 350.55,842.4 C 350.56,844.53 349.76,846.26 348.14,847.59 C 346.74,848.37 345.38,848.41 344.06,847.7 C 343.46,847.63 343.09,847.86 342.96,848.4 C 343.25,848.75 343.49,849.14 343.68,849.55 C 342.18,849.76 340.78,850.23 339.48,850.98 C 339.32,851.46 339.1,851.91 338.82,852.33 C 336.62,854.92 334.35,857.43 332.02,859.87 C 332.12,859.97 332.22,860.07 332.32,860.16 C 336.09,858.91 339.43,859.62 342.34,862.3 C 343.12,863.22 343.74,864.23 344.19,865.35 C 343.62,865.74 343.43,866.24 343.61,866.85 C 344.26,866.78 344.89,866.63 345.5,866.37 C 345.92,866.72 346.26,867.15 346.53,867.64 C 346.9,866.91 347.25,866.17 347.58,865.41 C 348,866.35 348.09,867.33 347.83,868.36 C 347.04,869.4 346.24,870.43 345.42,871.44 C 346.45,873.5 347.68,875.43 349.12,877.24 C 348.67,878.82 349.25,879.59 350.87,879.54 C 354.7,884.68 358.94,889.47 363.6,893.89 C 366.6,896.27 369.72,898.48 372.94,900.54 C 373.88,901.69 374.61,902.96 375.14,904.34 C 375.38,905.85 375.4,907.38 375.2,908.91 C 374.59,908.69 374.04,908.38 373.54,907.98 C 356.11,892.35 340.16,875.34 325.7,856.94 C 326.2,856.18 326.87,855.59 327.69,855.17 C 331.05,853.66 334.29,851.91 337.41,849.92 C 341.46,847.38 345.43,844.74 349.32,841.98 Z"/></g>
<g><path fill="#4e4e4e" stroke="#4e4e4e" stroke-width="0.5" d="M 962.04,918.27 C 960.51,918.1 958.97,917.96 957.43,917.83 C 954.87,917.27 953.06,915.79 951.99,913.4 C 951.81,913.1 951.56,912.96 951.23,912.98 C 951.17,911.77 951.58,910.77 952.45,909.96 C 953.47,909.26 954.43,908.5 955.34,907.67 C 955.96,907.3 956.61,907.23 957.29,907.48 C 960.53,910.47 963.65,913.56 966.66,916.75 C 966.96,917.22 966.88,917.59 966.42,917.87 C 964.96,918.04 963.51,918.17 962.04,918.27 Z M 987.25,933.24 C 990.51,929.9 993.9,926.69 997.42,923.62 C 998.56,923.08 999.43,923.4 1000.03,924.58 C 1000.16,925.45 999.98,926.25 999.49,927 C 998.63,928.13 997.74,929.24 996.81,930.31 C 994.21,932.33 991.73,934.5 989.38,936.8 C 988.81,936.95 988.35,936.76 988.02,936.25 C 987.88,935.22 987.62,934.21 987.25,933.24 Z"/></g>
<g><path fill="#555555" stroke="#555555" stroke-width="0.5" d="M 986.63,896.77 C 986.99,897.42 987.36,898.05 987.75,898.68 C 986.64,899.26 985.48,899.72 984.27,900.04 C 983.6,900.85 982.87,901.57 982.07,902.21 C 981.33,902.36 980.59,902.39 979.85,902.29 C 977.09,900.23 974.47,898 971.99,895.59 C 971.53,895.29 971.02,895.1 970.47,895.05 C 969.79,895.25 969.1,895.42 968.41,895.54 C 970.89,892.49 973.49,889.54 976.22,886.7 C 977.07,886.07 978.03,885.72 979.08,885.66 C 980.34,886.67 981.32,887.92 982,889.42 C 983.13,891.86 984.01,894.39 984.64,897 C 985.46,898.06 986.12,897.98 986.63,896.77 Z M 987.75,898.68 C 987.89,899.07 988.03,899.45 988.2,899.82 C 987.66,899.6 987.51,899.22 987.75,898.68 Z"/></g>
<g><path fill="#555656" d="M 966.67,853.36 C 967.03,853.68 967.37,854.02 967.68,854.39 C 967.27,857.31 966.6,860.19 965.67,863.03 C 964.16,866.42 962.23,869.55 959.89,872.44 C 954.1,879.28 948.03,885.86 941.69,892.19 C 938.44,895 935.23,897.85 932.07,900.75 C 930.93,901.52 929.8,902.24 928.68,902.91 C 928.6,902.78 928.53,902.65 928.46,902.52 C 930.8,900.3 933.23,898.2 935.75,896.21 C 939.29,892.75 942.78,889.25 946.21,885.69 C 949.77,881.54 953.24,877.32 956.62,873.03 C 959.16,869.51 961.56,865.88 963.81,862.15 C 964.54,860.58 965.17,858.98 965.7,857.33 C 966.11,855.99 966.43,854.67 966.67,853.36 Z"/></g>
<g><path fill="#2a2a2b" d="M 287.13,162.1 C 287.21,162.51 287.04,162.78 286.61,162.89 C 284.2,162.96 281.83,162.69 279.5,162.08 C 276.17,161.87 272.84,161.69 269.5,161.54 C 263.79,161.61 258.13,162.15 252.52,163.16 C 249.86,163.73 247.23,164.41 244.63,165.21 C 236.31,167.9 228.67,171.89 221.71,177.19 C 219.61,179.13 217.42,180.96 215.14,182.69 C 209.06,189.3 204.12,196.67 200.32,204.81 C 199.27,207.74 198.23,210.68 197.19,213.62 C 196.4,216.54 195.7,219.48 195.11,222.44 C 194.73,226.13 194.36,229.82 193.99,233.5 C 194.31,237.86 194.69,242.2 195.12,246.54 C 195.72,248.46 196.11,250.42 196.27,252.42 C 196.78,254.78 197.44,257.09 198.24,259.36 C 199.44,262.74 200.8,266.06 202.33,269.31 C 204.76,274.07 207.52,278.64 210.6,283 C 220.21,295.31 232.16,304.67 246.43,311.06 C 253.6,314.29 261,316.88 268.61,318.83 C 274.89,320.31 281.19,321.66 287.51,322.88 C 294.51,323.82 301.5,324.78 308.5,325.77 C 312.5,326.14 316.5,326.48 320.5,326.8 C 321.54,326.76 322.48,326.45 323.33,325.85 C 324.43,324.9 325.28,323.77 325.86,322.45 C 326.6,322.25 326.89,322.53 326.72,323.3 C 325.94,324.3 325.38,325.39 325.04,326.6 C 325.02,327.13 325.17,327.61 325.48,328.04 C 326.25,328.53 326.8,329.19 327.15,330.01 C 326.99,330.38 326.82,330.75 326.66,331.11 C 325.32,329.84 323.75,329.02 321.95,328.65 C 303.97,327.44 286.22,324.75 268.69,320.61 C 257.16,317.8 246.26,313.43 236,307.5 C 211.35,292.63 197.01,270.97 192.98,242.51 C 192.81,237.84 192.8,233.17 192.95,228.5 C 194.49,210.38 201.58,194.77 214.21,181.67 C 225.89,170.63 239.65,163.73 255.49,160.99 C 260.13,160.35 264.8,159.99 269.5,159.92 C 273.86,159.99 278.2,160.35 282.51,161.01 C 284.01,161.53 285.55,161.89 287.13,162.1 Z M 289.98,162.5 C 316.37,169.7 336.17,185.29 349.37,209.26 C 354.1,218.51 357.22,228.26 358.74,238.53 C 359.25,243.83 359.57,249.15 359.68,254.47 C 359.29,260.13 358.99,265.8 358.76,271.48 C 358.28,276.5 357.7,281.51 357.03,286.5 C 357.07,288.1 357.74,289.37 359.05,290.32 C 362.08,292.61 364.97,295.07 367.71,297.69 C 368.55,298.04 369.42,298.27 370.32,298.4 C 371.87,298.06 373.42,297.77 374.98,297.5 C 377.55,297.3 379.73,298.15 381.51,300.04 C 383.73,302 385.93,304 388.09,306.02 C 388.08,306.35 388.06,306.67 388.04,306.99 C 387.41,307.08 386.77,307.17 386.13,307.26 C 385.95,306.55 385.6,305.93 385.1,305.4 C 383.51,304.04 381.93,302.67 380.35,301.29 C 378.72,299.8 376.81,299.09 374.62,299.18 C 371.84,300.32 369.07,300.31 366.33,299.14 C 363.49,296.01 360.35,293.21 356.93,290.74 C 355.46,289.08 354.91,287.15 355.29,284.93 C 356.58,274.49 357.49,264.02 358.01,253.5 C 358.01,241.27 355.88,229.44 351.62,217.98 C 342.55,196.75 327.75,180.85 307.21,170.27 C 301.15,167.66 294.93,165.52 288.55,163.85 C 288.4,163.67 288.24,163.5 288.09,163.33 C 288.56,162.73 289.19,162.45 289.98,162.5 Z M 214.79,235 C 214.75,232.19 214.86,229.39 215.12,226.6 C 215.65,223.9 216.32,221.24 217.13,218.61 C 222.29,202.89 232.5,191.81 247.75,185.36 C 251.87,183.77 256.12,182.65 260.49,181.99 C 266.5,181.47 272.5,181.51 278.5,182.12 C 281.52,182.65 284.5,183.37 287.43,184.28 C 308.33,191.02 323.21,204.43 332.07,224.53 C 333.64,228.77 334.92,233.09 335.91,237.5 C 336.24,240.17 336.6,242.83 336.98,245.5 C 337,251.16 337.01,256.83 337,262.5 C 336.25,271.2 335.26,279.86 334.03,288.49 C 333.99,290.17 333.93,291.84 333.84,293.52 C 333.93,294.57 334.25,295.53 334.81,296.42 C 334.05,296.97 333.32,297.56 332.63,298.2 C 331.06,300.28 329.38,302.26 327.58,304.15 C 325.61,306.96 325.9,309.54 328.43,311.88 C 328.69,312.24 328.67,312.58 328.38,312.89 C 327.87,312.85 327.44,312.65 327.08,312.28 C 326.02,310.78 324.91,309.31 323.75,307.89 C 323.37,307.52 322.93,307.29 322.42,307.18 C 316.81,306.79 311.22,306.29 305.63,305.67 C 299.32,304.59 292.99,303.63 286.63,302.79 C 279.85,301.45 273.13,299.81 266.47,297.87 C 252.93,293.58 241.23,286.33 231.36,276.14 C 226.37,270.4 222.35,264.05 219.29,257.08 C 218.18,253.89 217.13,250.67 216.16,247.43 C 215.99,245.42 215.63,243.44 215.08,241.5 C 214.92,239.34 214.82,237.17 214.79,235 Z M 216.36,235 C 216.6,238.16 216.86,241.32 217.16,244.48 C 221.58,264.03 232.51,278.79 249.94,288.75 C 257.1,292.72 264.63,295.74 272.54,297.81 C 283.75,300.49 295.07,302.57 306.5,304.05 C 311.95,304.82 317.43,305.26 322.93,305.36 C 323.9,305.11 324.76,304.67 325.52,304.03 C 327.46,302.28 329.2,300.35 330.75,298.25 C 331.32,297.06 331.69,295.81 331.86,294.5 C 331.8,293.16 331.84,291.83 331.99,290.5 C 333.62,279.47 334.78,268.4 335.45,257.27 C 335.8,248.59 334.86,240.07 332.62,231.68 C 326.35,211.5 313.59,197.03 294.34,188.28 C 290.15,186.59 285.84,185.28 281.42,184.36 C 278.42,184.05 275.45,183.6 272.5,183.02 C 270.17,183.02 267.83,183.02 265.5,183.02 C 262.53,183.49 259.56,183.92 256.58,184.3 C 242.81,187.43 232.02,194.88 224.22,206.66 C 220.71,212.5 218.35,218.77 217.16,225.47 C 216.67,228.63 216.41,231.81 216.36,235 Z M 1069.22,913.1 C 1069.16,913.56 1069.35,913.86 1069.8,914 C 1070.6,914.76 1071.39,915.54 1072.16,916.34 C 1075.74,921.04 1078.67,926.12 1080.95,931.58 C 1083.64,938.7 1085.21,946.07 1085.65,953.67 C 1086.03,964.81 1083.79,975.39 1078.92,985.41 C 1069.03,1003.89 1053.84,1015.33 1033.36,1019.75 C 1029.43,1020.38 1025.48,1020.78 1021.5,1020.96 C 1017.19,1020.83 1012.89,1020.45 1008.61,1019.83 C 1007.09,1019.28 1005.53,1018.92 1003.92,1018.74 C 994.16,1016.02 985.46,1011.33 977.82,1004.68 C 972.79,999.54 967.78,994.39 962.78,989.22 C 962.96,988.93 963.14,988.64 963.31,988.36 C 963.87,988.14 964.34,988.27 964.71,988.76 C 969.35,993.46 973.94,998.22 978.47,1003.03 C 983.77,1008.06 989.82,1011.91 996.62,1014.6 C 999.9,1015.74 1003.22,1016.79 1006.56,1017.75 C 1009.51,1018.34 1012.49,1018.75 1015.5,1018.99 C 1020.16,1019.12 1024.83,1019.05 1029.48,1018.78 C 1035.09,1017.87 1040.55,1016.42 1045.87,1014.42 C 1062.54,1006.82 1074.11,994.47 1080.6,977.36 C 1082.64,971.24 1083.77,964.95 1083.99,958.5 C 1084.09,955.5 1084,952.51 1083.72,949.53 C 1083.28,945.95 1082.6,942.43 1081.67,938.94 C 1080.35,934.21 1078.55,929.67 1076.27,925.31 C 1075.11,923.41 1073.9,921.53 1072.65,919.69 C 1070.97,917.41 1069.25,915.18 1067.49,912.98 C 1058.75,904.39 1050.25,895.56 1042.01,886.49 C 1037.97,882.87 1034.09,879.09 1030.35,875.15 C 1024.91,869.26 1019.41,863.43 1013.84,857.68 C 1009.31,853.53 1004.2,850.31 998.51,848.02 C 995.86,847.34 993.18,846.77 990.47,846.33 C 988.53,846.26 986.59,846.25 984.66,846.32 C 983,846.77 981.31,847.11 979.61,847.34 C 978.2,847.84 976.79,848.37 975.4,848.93 C 972.54,850.5 969.63,851.97 966.67,853.36 C 966.43,854.67 966.11,855.99 965.7,857.33 C 965.17,858.98 964.54,860.58 963.81,862.15 C 961.56,865.88 959.16,869.51 956.62,873.03 C 953.24,877.32 949.77,881.54 946.21,885.69 C 942.78,889.25 939.29,892.75 935.75,896.21 C 933.23,898.2 930.8,900.3 928.46,902.52 C 928.53,902.65 928.6,902.78 928.68,902.91 C 929.8,902.24 930.93,901.52 932.07,900.75 C 935.23,897.85 938.44,895 941.69,892.19 C 948.03,885.86 954.1,879.28 959.89,872.44 C 962.23,869.55 964.16,866.42 965.67,863.03 C 966.6,860.19 967.27,857.31 967.68,854.39 C 968.69,854.22 969.65,854.37 970.57,854.83 C 973.51,856.51 976.17,858.56 978.56,860.97 C 979.96,862.42 981.32,863.9 982.64,865.42 C 984.57,865.13 986.53,864.93 988.5,864.82 C 992.88,865.1 996.7,866.73 999.93,869.72 C 1013.32,883.29 1026.55,897 1039.64,910.86 C 1044.15,916.01 1048.82,921 1053.65,925.85 C 1058.83,931.46 1062.19,938 1063.75,945.47 C 1063.91,947.53 1064.28,949.54 1064.88,951.5 C 1064.97,953.84 1065.04,956.17 1065.1,958.5 C 1064.68,961.15 1064.27,963.81 1063.86,966.48 C 1063.06,969.43 1062.07,972.33 1060.9,975.17 C 1058.93,978.84 1056.57,982.24 1053.81,985.36 C 1051.36,987.86 1048.77,990.22 1046.04,992.42 C 1042.03,995.15 1037.71,997.26 1033.08,998.76 C 1031.47,998.91 1029.91,999.29 1028.4,999.89 C 1023.44,1000.36 1018.47,1000.37 1013.5,999.92 C 1011.88,999.41 1010.23,999.02 1008.55,998.74 C 1001.54,996.81 995.36,993.39 990.01,988.49 C 982.04,980.43 974.17,972.26 966.42,963.99 C 966.68,963.6 966.93,963.2 967.19,962.81 C 976.03,972.19 985.1,981.34 994.39,990.26 C 1003.48,996.42 1013.49,999.18 1024.44,998.56 C 1036.98,997.13 1047.14,991.43 1054.92,981.48 C 1059.59,975.24 1062.27,968.25 1062.97,960.5 C 1064.02,950.03 1061.72,940.35 1056.08,931.47 C 1052.58,927.3 1048.99,923.21 1045.3,919.2 C 1029.79,903.04 1014.3,886.86 998.82,870.67 C 996.1,868.28 992.94,866.86 989.35,866.42 C 987.16,866.32 985.1,866.78 983.18,867.78 C 982.92,868.1 982.71,868.44 982.53,868.81 C 982.02,872.77 980.58,876.37 978.23,879.59 C 977.88,880.16 977.71,880.77 977.71,881.42 C 979.44,883.1 981.1,884.85 982.68,886.68 C 983.47,888.3 984.22,889.94 984.93,891.6 C 985.41,893.35 985.98,895.07 986.63,896.77 C 986.12,897.98 985.46,898.06 984.64,897 C 984.01,894.39 983.13,891.86 982,889.42 C 981.32,887.92 980.34,886.67 979.08,885.66 C 978.03,885.72 977.07,886.07 976.22,886.7 C 973.49,889.54 970.89,892.49 968.41,895.54 C 969.1,895.42 969.79,895.25 970.47,895.05 C 971.02,895.1 971.53,895.29 971.99,895.59 C 974.47,898 977.09,900.23 979.85,902.29 C 980.59,902.39 981.33,902.36 982.07,902.21 C 982.87,901.57 983.6,900.85 984.27,900.04 C 985.48,899.72 986.64,899.26 987.75,898.68 C 987.51,899.22 987.66,899.6 988.2,899.82 C 988.47,900.4 988.62,901 988.66,901.63 C 988.29,903.82 988.23,906.01 988.47,908.2 C 990.01,909.31 991.47,910.53 992.85,911.86 C 995.83,914.82 998.73,917.85 1001.55,920.96 C 1002.16,921.73 1002.6,922.58 1002.89,923.52 C 1003.37,925.82 1003.32,928.11 1002.74,930.38 C 1000.66,934.14 997.58,936.7 993.5,938.06 C 990.61,939.2 987.94,938.84 985.49,936.97 C 981.5,933.03 977.74,928.88 974.2,924.52 C 973.68,924.17 973.1,923.96 972.47,923.9 C 969.96,924.1 967.49,923.86 965.06,923.17 C 963.95,922.35 962.81,921.55 961.64,920.79 C 961.61,919.92 961.75,919.08 962.04,918.27 C 963.51,918.17 964.96,918.04 966.42,917.87 C 966.88,917.59 966.96,917.22 966.66,916.75 C 963.65,913.56 960.53,910.47 957.29,907.48 C 956.61,907.23 955.96,907.3 955.34,907.67 C 954.43,908.5 953.47,909.26 952.45,909.96 C 951.58,910.77 951.17,911.77 951.23,912.98 C 950.75,913.01 950.28,913.04 949.81,913.07 C 949.75,912.67 949.68,912.28 949.58,911.89 C 949.41,911.52 949.14,911.42 948.76,911.59 C 946.26,912.92 943.78,914.27 941.32,915.66 C 938.91,916.67 936.58,916.51 934.35,915.19 C 932.65,913.89 931.07,912.46 929.6,910.9 C 928.54,910.25 927.5,909.59 926.48,908.93 C 926.01,909.03 925.69,909.31 925.53,909.77 C 923.73,913.36 923.99,916.78 926.3,920.02 C 933.58,927.64 940.81,935.29 948.02,942.97 C 948.07,943.71 947.74,944.11 947,944.15 C 940.14,937.13 933.33,930.05 926.59,922.91 C 924.36,920.92 923.1,918.44 922.82,915.5 C 922.75,913.82 922.82,912.15 923.04,910.49 C 923.35,909.18 923.65,907.87 923.95,906.56 C 923.93,906.04 923.68,905.68 923.2,905.49 C 922.36,905.29 921.54,905.33 920.73,905.64 C 917.93,906.96 915.17,908.38 912.46,909.9 C 910.38,910.7 908.24,911.28 906.04,911.62 C 905.37,912.45 905.03,913.41 905.02,914.5 C 904.66,919.47 905.65,924.15 908,928.55 C 909.44,930.73 911,932.83 912.67,934.84 C 924.27,946.89 935.93,958.9 947.63,970.87 C 950.55,973.9 953.34,977.04 956.01,980.28 C 955.77,980.87 955.74,981.47 955.91,982.1 C 941.27,966.9 926.65,951.68 912.06,936.43 C 907.14,931.8 904.17,926.16 903.15,919.49 C 903.1,916.57 903.09,913.66 903.11,910.76 C 902.61,909.72 901.89,908.83 900.95,908.11 C 900.97,907.75 900.98,907.39 901,907.03 C 901.45,906.95 901.88,907.02 902.3,907.23 C 902.96,907.85 903.67,908.41 904.42,908.92 C 906.77,909.58 909.09,909.48 911.39,908.63 C 914.19,907.24 916.93,905.74 919.6,904.12 C 921.76,903.37 923.87,902.51 925.94,901.54 C 929.07,898.99 932.2,896.42 935.33,893.83 C 939.44,889.92 943.38,885.85 947.16,881.61 C 949.7,878.2 952.39,874.91 955.24,871.76 C 956.87,869.45 958.5,867.14 960.15,864.84 C 961.31,862.68 962.38,860.49 963.36,858.25 C 964.03,855.53 964.51,852.81 964.8,850.08 C 964.91,849.75 965.03,849.42 965.15,849.09 C 965.72,849.86 966.18,850.7 966.55,851.61 C 967.96,851.43 968.86,850.67 969.25,849.32 C 969.6,848.94 969.94,848.55 970.29,848.17 C 970.93,848.62 971.63,848.74 972.39,848.53 C 978.72,845.25 985.43,844.07 992.51,844.98 C 999.66,846.27 1006.04,849.22 1011.66,853.84 C 1013.43,855.4 1015.17,856.99 1016.89,858.61 C 1034.35,876.75 1051.79,894.91 1069.22,913.1 Z M 970.03,887.98 C 970.02,888.72 969.79,889.38 969.35,889.97 C 964.65,894.88 959.87,899.7 954.99,904.42 C 953.91,906.11 954.22,906.45 955.9,905.44 C 962.65,898.86 969.19,892.07 975.53,885.08 C 975.86,884.29 975.6,883.95 974.77,884.07 C 973.67,885.07 972.63,886.11 971.63,887.22 C 971.19,887.66 970.65,887.92 970.03,887.98 C 969.91,887.55 969.92,887.13 970.09,886.71 C 971.47,885.09 972.92,883.54 974.42,882.03 C 976.95,878.99 978.87,875.61 980.21,871.9 C 980.55,869.97 980.55,868.04 980.19,866.11 C 979.98,865.39 979.66,864.72 979.23,864.1 C 978.21,862.84 977.1,861.66 975.9,860.58 C 974,858.86 971.94,857.41 969.72,856.23 C 969.55,856.37 969.38,856.5 969.21,856.64 C 968.88,859.36 968.13,861.95 966.98,864.43 C 965.27,867.66 963.31,870.73 961.11,873.64 C 955.62,880.12 949.85,886.34 943.81,892.33 C 939.17,896.65 934.48,900.92 929.76,905.15 C 928.94,905.88 928.71,906.75 929.08,907.77 C 931.07,910.4 933.48,912.57 936.3,914.29 C 936.96,914.58 937.64,914.68 938.35,914.59 C 939.61,914.36 940.84,914.04 942.05,913.61 C 943.86,912.44 945.56,911.14 947.16,909.69 C 954.51,903.02 961.54,896.04 968.28,888.75 C 968.75,888.23 969.33,887.97 970.03,887.98 Z M 972.05,899.65 C 973.89,901.38 975.69,903.16 977.43,904.98 C 977.85,905.37 978.3,905.47 978.79,905.29 C 978.66,904.63 978.35,904.07 977.87,903.59 C 975.92,901.6 973.93,899.64 971.9,897.72 C 970.89,896.96 970.36,897.2 970.31,898.44 C 969.79,898.49 969.28,898.49 968.76,898.46 C 968.16,897.94 967.49,897.56 966.75,897.3 C 966.53,897.4 966.32,897.49 966.1,897.58 C 963.59,900.14 961.13,902.73 958.71,905.36 C 958.88,906.22 959.25,906.99 959.83,907.67 C 962.74,910.74 965.81,913.61 969.05,916.29 C 970.42,916.69 971.62,916.35 972.65,915.27 C 974.35,913.88 975.91,912.35 977.35,910.69 C 977.94,909.86 978.3,908.95 978.43,907.96 C 976.11,906.01 973.95,903.89 971.95,901.58 C 971.29,900.88 971.32,900.24 972.05,899.65 Z M 965.31,920.95 C 966.46,922.1 967.86,922.59 969.5,922.41 C 970.79,922.21 972.07,922.03 973.36,921.87 C 974.94,921.24 976.38,920.38 977.68,919.3 C 980.87,916.66 983.54,913.58 985.67,910.06 C 986.75,907.63 987.14,905.1 986.85,902.46 C 986.8,901.18 986.33,900.98 985.43,901.85 C 984.04,903.87 982.75,905.95 981.56,908.1 C 978.86,912.06 975.54,915.4 971.6,918.12 C 969.77,919.19 967.82,919.96 965.75,920.4 C 965.46,920.48 965.31,920.66 965.31,920.95 Z M 987.25,933.24 C 987.62,934.21 987.88,935.22 988.02,936.25 C 988.35,936.76 988.81,936.95 989.38,936.8 C 991.73,934.5 994.21,932.33 996.81,930.31 C 997.74,929.24 998.63,928.13 999.49,927 C 1000.58,925.35 1000.25,924.1 998.48,923.25 C 998.09,923.27 997.74,923.39 997.42,923.62 C 993.9,926.69 990.51,929.9 987.25,933.24 Z"/></g>
<g><path fill="#494949" stroke="#494949" stroke-width="0.5" d="M 970.31,898.44 C 970.91,898.81 971.49,899.22 972.05,899.65 C 971.32,900.24 971.29,900.88 971.95,901.58 C 973.95,903.89 976.11,906.01 978.43,907.96 C 978.3,908.95 977.94,909.86 977.35,910.69 C 975.91,912.35 974.35,913.88 972.65,915.27 C 971.62,916.35 970.42,916.69 969.05,916.29 C 965.81,913.61 962.74,910.74 959.83,907.67 C 959.25,906.99 958.88,906.22 958.71,905.36 C 961.13,902.73 963.59,900.14 966.1,897.58 C 966.32,897.49 966.53,897.4 966.75,897.3 C 967.49,897.56 968.16,897.94 968.76,898.46 C 969.28,898.49 969.79,898.49 970.31,898.44 Z"/></g>
<g><path fill="#0a469f" d="M 790.01,552.48 C 784.22,559.44 778.31,566.29 772.28,573.05 C 770.95,572.35 770.27,571.22 770.26,569.67 C 771.11,568.35 772.2,567.26 773.52,566.4 C 773.86,566.82 774.2,567.24 774.54,567.65 C 774.99,567.65 775.38,567.49 775.7,567.17 C 776.01,566.48 776.27,565.77 776.47,565.04 C 776.97,564.71 777.48,564.43 778.02,564.18 C 778.07,564.01 778.12,563.83 778.16,563.65 C 777.85,563.29 777.56,562.91 777.3,562.51 C 778.1,562.21 778.88,561.87 779.64,561.48 C 779.1,560.67 779.13,559.91 779.72,559.2 C 780.69,559.27 781.67,559.34 782.64,559.42 C 782.87,559.26 783.09,559.1 783.32,558.94 C 784.17,557.44 785.1,556 786.12,554.62 C 787.38,553.75 788.51,552.74 789.51,551.58 C 789.84,551.78 790,552.08 790.01,552.48 Z"/></g>
<g><path fill="#292a2a" d="M 327.15,330.01 C 328.05,330.17 328.61,330.68 328.82,331.56 C 328.97,335.84 329.05,340.13 329.08,344.43 C 329.45,345.32 329.92,346.15 330.51,346.92 C 332.48,348.88 334.31,350.96 335.97,353.19 C 337.36,354.2 337.23,354.81 335.6,355.01 C 333.72,352.85 331.78,350.74 329.79,348.69 C 327.85,346.68 326.88,344.29 326.87,341.5 C 326.98,338.03 326.91,334.57 326.66,331.11 C 326.82,330.75 326.99,330.38 327.15,330.01 Z"/></g>
<g><path fill="#282829" d="M 948.02,942.97 C 954.46,949.53 960.85,956.15 967.19,962.81 C 966.93,963.2 966.68,963.6 966.42,963.99 C 959.85,957.48 953.37,950.87 947,944.15 C 947.74,944.11 948.07,943.71 948.02,942.97 Z"/></g>
<g><path fill="#212323" d="M 959.84,842.65 C 961.21,843.88 962.56,845.13 963.87,846.41 C 965.04,846.22 966.21,846.13 967.4,846.14 C 968.5,846.61 969.47,847.28 970.29,848.17 C 969.94,848.55 969.6,848.94 969.25,849.32 C 968.49,848.51 967.57,848.05 966.48,847.94 C 965.65,847.92 965.2,848.31 965.15,849.09 C 965.03,849.42 964.91,849.75 964.8,850.08 C 964.42,850.1 964.09,849.99 963.8,849.75 C 962.57,847.61 960.99,845.78 959.07,844.26 C 958.83,843.49 959.08,842.95 959.84,842.65 Z"/></g>
<g><path fill="#353434" d="M 949.81,913.07 C 950.28,913.04 950.75,913.01 951.23,912.98 C 951.56,912.96 951.81,913.1 951.99,913.4 C 953.06,915.79 954.87,917.27 957.43,917.83 C 958.97,917.96 960.51,918.1 962.04,918.27 C 961.75,919.08 961.61,919.92 961.64,920.79 C 959.63,920.06 957.59,919.49 955.49,919.06 C 952.7,917.92 950.81,915.93 949.81,913.07 Z"/></g>
<g><path fill="#242424" d="M 956.01,980.28 C 957.74,981.56 959.33,983.02 960.8,984.65 C 961.81,985.78 962.65,987.01 963.31,988.36 C 963.14,988.64 962.96,988.93 962.78,989.22 C 960.56,986.77 958.27,984.4 955.91,982.1 C 955.74,981.47 955.77,980.87 956.01,980.28 Z"/></g>
</svg>
